<svg xmlns="http://www.w3.org/2000/svg" width="985.895" height="240" viewBox="0 0 985.895 240"><path d="M241.258 153.425c-.42 0-.688.39-.808 1.165-.12.84-.389 1.765-.807 2.78-.418 1.016-.927 1.883-1.523 2.6-1.077 1.315-2.555 2.093-4.438 2.33-1.883.241-4.02.358-6.41.358-1.735 0-3.214-.045-4.439-.134-1.225-.089-2.241-.208-3.047-.358-.807-.147-1.466-.359-1.973-.628a5.38 5.38 0 0 1-1.3-.94c-.837-.778-1.375-2.748-1.613-5.92-.24-3.165-.358-8.035-.358-14.61v-29.765c0-1.375.014-2.465.044-3.273.03-.807.074-1.569.135-2.286.118-1.553.403-2.734.85-3.542.45-.806 1.33-1.328 2.646-1.568.538-.119 1.09-.194 1.658-.224.568-.03 1-.045 1.3-.045.479 0 .718-.179.718-.537 0-.478-.48-.719-1.434-.719-.66 0-1.51.017-2.556.046l-3.093.089c-1.017.03-1.914.061-2.689.09-.778.03-1.225.045-1.345.045-.12 0-.524-.014-1.21-.045-.688-.029-1.525-.06-2.511-.09-.985-.03-2.047-.058-3.182-.089-1.137-.03-2.213-.046-3.228-.046-.956 0-1.434.24-1.434.719 0 .358.237.537.717.537.418 0 .942.016 1.568.045.629.03 1.122.105 1.48.224 1.493.3 2.48.838 2.959 1.614.478.777.775 1.943.896 3.496.058.717.104 1.479.135 2.286.029.808.044 1.898.044 3.273v29.585c0 4.302-.015 8.145-.044 11.52-.03 3.376-.166 6.022-.405 7.934-.179 1.315-.433 2.42-.761 3.316-.33.897-.94 1.437-1.838 1.614-.419.12-.868.212-1.344.27-.48.061-.928.089-1.345.089-.48 0-.717.18-.717.54 0 .477.478.716 1.434.716a82.237 82.237 0 0 0 5.11-.18c.897 0 1.688-.014 2.375-.045a39.03 39.03 0 0 1 1.301-.044c1.313 0 2.689.013 4.124.044 1.434.03 3.107.103 5.02.225 1.913.059 4.064.12 6.455.178 2.39.058 5.2.092 8.427.092 1.195 0 2.137-.034 2.825-.092.686-.058 1.21-.178 1.569-.358.358-.178.611-.417.761-.717.149-.298.314-.718.493-1.254.18-.659.344-1.45.494-2.376.148-.926.298-1.84.447-2.735.149-.897.254-1.703.314-2.42s.09-1.195.09-1.434c0-.898-.179-1.346-.537-1.346zm68.224 11.206c-.48 0-1.031-.028-1.66-.089a7.745 7.745 0 0 1-1.927-.447c-.478-.12-1-.328-1.569-.628-.568-.3-1.164-.81-1.792-1.526-.628-.717-1.316-1.704-2.062-2.957-.748-1.256-1.51-2.868-2.286-4.842l-3.363-8.516a1560.04 1560.04 0 0 1-4.213-10.804 7826.632 7826.632 0 0 1-4.437-11.52 1447.708 1447.708 0 0 1-4.08-10.713 2166.718 2166.718 0 0 0-3.137-8.293c-.868-2.27-1.42-3.676-1.66-4.214-.537-1.374-.926-2.255-1.164-2.644-.24-.389-.509-.584-.807-.584-.3 0-.569.21-.808.629-.239.418-.626 1.375-1.164 2.868L253 156.024c-.838 2.273-1.779 4.169-2.824 5.694-1.046 1.523-2.615 2.435-4.706 2.735-.359.058-.807.103-1.345.134-.538.03-.956.044-1.255.044-.538 0-.807.18-.807.54 0 .477.568.716 1.703.716 1.076 0 2.151-.017 3.227-.044 1.077-.03 2.093-.061 3.049-.092.956-.03 1.777-.058 2.465-.089a37.34 37.34 0 0 1 1.39-.044c.238 0 .641.013 1.21.044.568.03 1.18.058 1.838.089l2.062.092c.717.027 1.345.044 1.883.044.896 0 1.344-.239 1.344-.717 0-.358-.299-.539-.896-.539h-.897c-.777 0-1.54-.208-2.286-.628-.747-.417-1.121-1.076-1.121-1.97 0-1.674.418-3.677 1.256-6.009l5.38-15.868c.178-.478.476-.717.895-.717h19.275c.359 0 .628.18.808.538l8.337 22.055c.299.718.359 1.27.18 1.657-.18.392-.42.645-.718.764-.42.12-.628.328-.628.625 0 .3.24.465.717.495.478.03 1.136.075 1.973.134a231.892 231.892 0 0 0 8.785.18h5.29c.478 0 .897-.044 1.255-.136.359-.089.538-.28.538-.58 0-.36-.299-.54-.896-.54zm-26.807-28.42h-17.122c-.358 0-.449-.208-.27-.626l7.89-24.207c.417-1.314.866-1.314 1.344 0l8.517 24.207c.12.418 0 .626-.359.626zm100.32-32.99c-.36-.36-.897-.822-1.614-1.39-.717-.567-1.734-1.122-3.049-1.66-1.314-.537-2.944-1.015-4.885-1.434-1.943-.417-4.32-.628-7.127-.628-2.093 0-4.244.046-6.455.135-2.212.09-3.826.135-4.841.135-.18 0-.615-.014-1.301-.045-.688-.029-1.523-.06-2.51-.09-.986-.03-2.032-.058-3.137-.089a121.24 121.24 0 0 0-3.184-.046c-.956 0-1.434.24-1.434.719 0 .358.238.537.717.537.419 0 .942.016 1.57.045.627.03 1.12.105 1.479.224 1.492.3 2.479.838 2.958 1.614.478.777.776 1.943.897 3.496.058.717.104 1.479.134 2.286.03.808.045 1.898.045 3.273v29.585c0 4.302-.015 8.145-.045 11.52-.03 3.376-.165 6.022-.404 7.934-.18 1.315-.433 2.42-.761 3.316-.33.897-.941 1.437-1.839 1.614-.418.12-.867.212-1.344.27-.479.061-.928.089-1.345.089-.479 0-.717.18-.717.54 0 .477.478.716 1.434.716.658 0 1.465-.017 2.421-.044.956-.03 1.883-.061 2.78-.092.895-.03 1.672-.058 2.33-.089a53.49 53.49 0 0 1 1.076-.044c.119 0 .523.013 1.21.044.687.03 1.554.058 2.6.089 1.046.03 2.196.061 3.452.092 1.255.027 2.51.044 3.765.044.956 0 1.435-.239 1.435-.717 0-.358-.24-.539-.717-.539-.42 0-1.031-.028-1.838-.089-.808-.058-1.54-.15-2.197-.27-1.376-.177-2.272-.717-2.689-1.614-.42-.895-.688-2.001-.807-3.316-.24-1.912-.374-4.558-.403-7.934-.03-3.375-.045-7.218-.045-11.52v-36.847c0-.956.238-1.525.717-1.704.417-.179.97-.314 1.658-.403.686-.09 1.419-.135 2.197-.135h2.15c.897 0 1.898.135 3.005.403 1.105.27 2.27.717 3.496 1.346 1.225.628 2.435 1.54 3.631 2.734 1.195 1.197 2.12 2.451 2.78 3.766.657 1.315 1.149 2.6 1.478 3.855.328 1.254.538 2.42.628 3.496.089 1.075.135 1.972.135 2.69 0 2.093-.404 4.02-1.21 5.782a14.921 14.921 0 0 1-3.273 4.618c-1.376 1.314-3.02 2.345-4.932 3.091-1.913.75-3.943 1.122-6.096 1.122-.956 0-1.599.044-1.927.135-.33.089-.493.312-.493.67 0 .241.104.405.314.494.208.09.433.135.672.135.238.06.538.09.897.09h.986c3.167 0 6.096-.507 8.787-1.524 2.688-1.016 5.019-2.465 6.992-4.348 1.972-1.883 3.51-4.138 4.617-6.769 1.105-2.629 1.658-5.528 1.658-8.696 0-2.39-.493-4.528-1.478-6.41-.987-1.883-1.989-3.303-3.005-4.259zm84.452 61.41c-.3 0-.749-.014-1.345-.044a23.322 23.322 0 0 1-2.152-.226c-1.136-.177-2.63-.655-4.483-1.434-1.852-.775-4.005-2.448-6.455-5.019-2.63-2.81-5.468-6.156-8.516-10.04l-10.13-12.911c4.003-3.705 6.813-7.247 8.426-10.624 1.615-3.376 2.42-6.738 2.42-10.085 0-1.554-.223-2.99-.672-4.304-.447-1.314-.985-2.48-1.613-3.496a15.82 15.82 0 0 0-2.018-2.646c-.717-.746-1.344-1.328-1.881-1.748-2.392-1.733-5.007-2.823-7.846-3.272a54.911 54.911 0 0 0-8.561-.673c-.717 0-1.613.017-2.69.046-1.076.03-2.167.06-3.273.089-1.106.03-2.092.061-2.958.09-.867.03-1.42.045-1.658.045-.12 0-.524-.014-1.21-.045-.688-.029-1.525-.06-2.511-.09-.985-.03-2.047-.058-3.182-.089-1.137-.03-2.212-.046-3.228-.046-.956 0-1.434.24-1.434.719 0 .358.237.537.717.537.418 0 .942.016 1.569.045.628.03 1.12.105 1.48.224 1.492.3 2.478.838 2.958 1.614.478.777.775 1.943.896 3.496.058.717.104 1.479.135 2.286.03.808.044 1.898.044 3.273v29.585c0 4.302-.015 8.145-.044 11.52-.03 3.376-.165 6.022-.404 7.934-.18 1.315-.434 2.42-.762 3.316-.33.897-.94 1.437-1.838 1.614-.419.12-.867.212-1.344.27-.48.061-.928.089-1.345.089-.48 0-.717.18-.717.54 0 .477.478.716 1.434.716.657 0 1.464-.017 2.42-.044.957-.03 1.883-.061 2.78-.092.896-.03 1.973-.075 3.228-.133.118 0 .522.013 1.21.044.686.03 1.553.058 2.6.089 1.045.03 2.195.061 3.452.092 1.254.027 2.51.044 3.764.044.956 0 1.435-.239 1.435-.717 0-.358-.24-.539-.717-.539-.42 0-1.03-.028-1.838-.089-.807-.058-1.54-.15-2.197-.27-1.376-.177-2.272-.717-2.689-1.614-.42-.895-.688-2.001-.807-3.316-.24-1.912-.374-4.558-.403-7.934-.03-3.375-.046-7.218-.046-11.52v-2.152c0-.478.21-.717.628-.717l11.028.179c.417 0 .806.18 1.164.538.418.599 1 1.39 1.75 2.376a206.02 206.02 0 0 1 2.42 3.272c.866 1.197 1.778 2.452 2.734 3.765.956 1.316 1.912 2.6 2.87 3.856 2.568 3.407 4.75 6.2 6.544 8.382 1.793 2.181 3.645 3.78 5.558 4.797 1.134.658 2.389 1.106 3.765 1.345 1.374.236 3.318.358 5.828.358h6.365c.837 0 1.404-.044 1.704-.136.297-.089.447-.28.447-.58 0-.36-.268-.54-.806-.54zm-35.234-31.916a8.116 8.116 0 0 1-3.317 1.39c-1.196.21-2.33.314-3.407.314-1.972 0-3.87-.135-5.692-.403-1.824-.27-3.064-.613-3.721-1.031-.418-.24-.628-.598-.628-1.077v-29.316c0-.538.239-.896.718-1.076.477-.119 1.255-.237 2.33-.358 1.076-.12 2.3-.18 3.676-.18 4.841 0 8.636 1.585 11.386 4.752 2.749 3.17 4.125 7.562 4.125 13.178 0 3.408-.524 6.292-1.57 8.652-1.046 2.362-2.346 4.08-3.9 5.155zm94.718-26.85c-3.138-2.9-6.86-5.124-11.161-6.679-4.304-1.553-8.966-2.332-13.986-2.332-4.125 0-7.86.524-11.207 1.57-3.348 1.046-6.335 2.464-8.964 4.258-2.632 1.793-4.888 3.87-6.77 6.231a39.495 39.495 0 0 0-4.707 7.441 36.354 36.354 0 0 0-2.78 7.935c-.597 2.689-.895 5.23-.895 7.619 0 4.066.657 8.175 1.971 12.328 1.315 4.155 3.377 7.933 6.187 11.34 2.808 3.408 6.41 6.187 10.804 8.338 4.392 2.151 9.666 3.227 15.823 3.227 5.379 0 10.279-.97 14.703-2.913 4.422-1.943 8.187-4.572 11.296-7.89 3.107-3.316 5.514-7.2 7.217-11.654 1.703-4.451 2.554-9.19 2.554-14.21 0-5.2-.896-9.876-2.688-14.03-1.794-4.154-4.26-7.68-7.397-10.58zm-1.255 42.943c-1.824 4.034-4.034 7.158-6.634 9.37-2.6 2.21-5.305 3.69-8.114 4.435-2.81.748-5.23 1.123-7.261 1.123-4.066 0-7.83-.809-11.296-2.42-3.467-1.615-6.5-3.916-9.1-6.904-2.6-2.988-4.633-6.605-6.097-10.848-1.466-4.244-2.197-8.966-2.197-14.166 0-4.9.658-9.189 1.974-12.864 1.313-3.676 3.137-6.754 5.468-9.235a22.098 22.098 0 0 1 8.293-5.559c3.196-1.224 6.68-1.837 10.444-1.837 3.526 0 6.932.717 10.22 2.151 3.286 1.434 6.186 3.542 8.696 6.321 2.51 2.78 4.529 6.231 6.051 10.354 1.525 4.124 2.288 8.877 2.288 14.256 0 6.514-.913 11.789-2.735 15.823zm83.241-50.699c-.659 0-1.359.017-2.106.046l-2.152.089c-.689.03-1.286.061-1.792.09-.509.03-.823.045-.942.045-.54 0-1.69-.045-3.452-.135-1.765-.089-3.54-.135-5.333-.135-1.317 0-1.973.24-1.973.719 0 .358.328.537.986.537.478 0 1.031.016 1.657.045.628.03 1.211.135 1.748.314.478.239.792.553.942.94.15.39.225.764.225 1.122 0 .418-.075.927-.225 1.523-.15.599-.345 1.227-.58 1.883-.362 1.077-.943 2.78-1.752 5.11a326.864 326.864 0 0 1-2.912 8.024 794.985 794.985 0 0 1-3.722 9.683 2495.005 2495.005 0 0 1-3.988 10.13 964.232 964.232 0 0 1-3.765 9.368c-1.195 2.93-2.213 5.41-3.05 7.441l-17.21-45.9a332.444 332.444 0 0 1-1.704-4.573c-.48-1.313-.717-2.27-.717-2.868 0-.299.072-.613.222-.942.15-.328.462-.612.942-.852.417-.18.97-.298 1.66-.359a21.186 21.186 0 0 1 1.748-.089c.594 0 .894-.21.894-.628 0-.417-.805-.628-2.42-.628-1.734 0-3.435.046-5.11.135-1.674.09-2.75.135-3.226.135-.3 0-.808-.014-1.525-.045-.717-.029-1.555-.06-2.51-.09-.957-.03-2.003-.058-3.138-.089-1.135-.03-2.242-.046-3.317-.046-1.554 0-2.33.211-2.33.628 0 .419.239.628.717.628.298 0 .776.016 1.434.045.657.03 1.314.135 1.971.314.777.239 1.465.493 2.063.761.597.27 1.135.66 1.614 1.166.477.509.941 1.152 1.39 1.928.447.776.91 1.792 1.39 3.048l21.963 54.955c.837 2.154 1.448 3.619 1.837 4.394.39.775.853 1.165 1.39 1.165.42 0 .836-.462 1.256-1.39.417-.925 1.256-2.735 2.51-5.422 1.017-2.212 2.512-5.65 4.482-10.31a4595.892 4595.892 0 0 0 7.084-16.855c1.134-2.749 2.254-5.439 3.36-8.07 1.106-2.628 2.107-5.049 3.004-7.261.898-2.21 1.673-4.092 2.332-5.647.656-1.554 1.104-2.66 1.345-3.317a69.142 69.142 0 0 1 1.612-3.766c.478-1.016.912-1.838 1.3-2.465.39-.628.748-1.106 1.076-1.436.328-.328.642-.582.943-.761.836-.538 1.686-.852 2.554-.942.867-.09 1.447-.134 1.748-.134.717 0 1.075-.21 1.075-.628 0-.417-.508-.628-1.523-.628zm29.854 66.522c-.42 0-1.031-.028-1.84-.089a20.707 20.707 0 0 1-2.196-.27c-1.375-.177-2.27-.717-2.69-1.614-.417-.895-.686-2.001-.806-3.316-.239-1.912-.375-4.558-.403-7.934-.03-3.375-.044-7.218-.044-11.52v-29.585c0-1.375.014-2.465.044-3.273a48.88 48.88 0 0 1 .134-2.286c.12-1.553.403-2.734.853-3.542.447-.806 1.267-1.328 2.465-1.568.536-.119.97-.194 1.3-.224.329-.03.64-.045.94-.045.478 0 .717-.179.717-.537 0-.478-.478-.719-1.434-.719-.659 0-1.465.017-2.42.046l-2.78.089c-.895.03-1.69.061-2.376.09-.686.03-1.09.045-1.209.045s-.525-.014-1.212-.045c-.686-.029-1.478-.06-2.373-.09-.898-.03-1.854-.058-2.87-.089a93.565 93.565 0 0 0-2.6-.046c-.955 0-1.433.24-1.433.719 0 .358.236.537.717.537.297 0 .717.031 1.253.09.54.06 1.045.15 1.526.269 1.85.418 2.868 2.093 3.049 5.02.058.717.102 1.479.133 2.286.028.808.044 1.898.044 3.273v29.585c0 4.302-.016 8.145-.044 11.52-.03 3.376-.167 6.022-.403 7.934-.18 1.315-.436 2.42-.762 3.316-.33.897-.942 1.437-1.84 1.614-.416.12-.866.212-1.344.27-.479.061-.926.089-1.346.089-.478 0-.717.18-.717.54 0 .477.478.716 1.437.716.656 0 1.462-.017 2.42-.044.954-.03 1.882-.061 2.78-.092.895-.03 1.687-.058 2.373-.089.687-.03 1.093-.044 1.212-.044s.523.013 1.209.044c.687.03 1.554.058 2.601.089 1.045.03 2.196.061 3.452.092 1.253.027 2.51.044 3.766.044.953 0 1.434-.239 1.434-.717 0-.358-.24-.539-.717-.539zm81.268-47.201c-.806-1.883-1.734-3.571-2.78-5.065a35.407 35.407 0 0 0-3.27-4.035c-2.69-2.748-5.65-4.825-8.877-6.231-3.227-1.404-6.487-2.404-9.772-3.003-3.287-.596-6.442-.91-9.46-.94-3.018-.03-5.633-.047-7.843-.047-1.375 0-2.72.017-4.035.046-1.314.03-2.526.06-3.63.089-1.106.03-2.062.061-2.87.09-.806.03-1.329.045-1.568.045-.12 0-.525-.014-1.211-.045-.687-.029-1.523-.06-2.51-.09-.987-.03-2.048-.058-3.182-.089-1.137-.03-2.212-.046-3.227-.046-.959 0-1.434.24-1.434.719 0 .358.236.537.717.537a35 35 0 0 1 1.568.045c.628.03 1.12.105 1.478.224 1.495.3 2.482.838 2.96 1.614.478.777.775 1.943.898 3.496.058.717.102 1.479.133 2.286.028.808.044 1.898.044 3.273v29.585c0 4.302-.016 8.145-.044 11.52-.03 3.376-.167 6.022-.403 7.934-.18 1.315-.436 2.42-.761 3.316-.331.897-.943 1.437-1.84 1.614-.417.12-.867.212-1.345.27-.478.061-.926.089-1.345.089-.478 0-.717.18-.717.54 0 .477.478.716 1.436.716.656 0 1.462-.03 2.42-.089a43.483 43.483 0 0 1 2.78-.091 40.829 40.829 0 0 1 2.42-.09h1.165c.24 0 1.045.059 2.42.181 1.374.117 3.05.236 5.02.359 1.912.116 3.99.236 6.23.358 2.244.117 4.32.178 6.232.178 3.824 0 7.203-.344 10.133-1.03 2.926-.687 5.497-1.554 7.709-2.6 2.21-1.044 4.08-2.167 5.603-3.362s2.762-2.301 3.721-3.319c1.253-1.311 2.465-2.837 3.63-4.571 1.167-1.733 2.198-3.66 3.093-5.782.897-2.12 1.614-4.439 2.15-6.948.54-2.511.81-5.17.81-7.98 0-2.69-.242-5.168-.718-7.44-.48-2.27-1.122-4.348-1.928-6.231zm-5.873 22.637c-.3 2.032-.761 3.99-1.39 5.871a30.797 30.797 0 0 1-2.286 5.245c-.895 1.614-1.912 2.99-3.046 4.124-2.69 2.69-5.873 4.752-9.55 6.186-3.674 1.434-7.606 2.151-11.789 2.151-2.629 0-4.855-.102-6.678-.314-1.823-.208-3.318-.492-4.483-.85-1.164-.359-2.062-.748-2.69-1.165-.628-.42-1.092-.836-1.39-1.256-.177-.239-.328-.628-.447-1.164a13.571 13.571 0 0 1-.27-1.796c-.06-.655-.12-1.328-.177-2.014-.062-.687-.092-1.301-.092-1.84 0-.417-.014-1.223-.045-2.42-.03-1.194-.06-2.66-.089-4.393-.03-1.733-.044-3.676-.044-5.827v-28.868c0-1.793.014-3.407.044-4.841.028-1.435.045-2.54.045-3.317 0-.897.358-1.494 1.075-1.793.181-.06.495-.135.943-.225.447-.089.97-.164 1.567-.224a40.406 40.406 0 0 1 1.748-.135c.57-.029 1.092-.044 1.57-.044 2.69 0 5.334.106 7.935.314 2.598.21 5.125.673 7.576 1.39a32.683 32.683 0 0 1 7.17 3.093c2.332 1.344 4.541 3.124 6.637 5.333.894.957 1.85 2.139 2.868 3.542 1.014 1.405 1.956 3.049 2.823 4.93.865 1.883 1.568 3.99 2.107 6.321.539 2.33.806 4.93.806 7.8 0 2.093-.15 4.155-.448 6.186zm61.053 13.717c-.359 0-.628.447-.809 1.345-.3 1.854-.748 3.271-1.345 4.258s-1.492 1.717-2.687 2.195c-1.198.481-2.632.765-4.305.853a82.783 82.783 0 0 1-4.303.134c-2.212 0-3.976-.09-5.288-.27-1.318-.178-2.349-.536-3.093-1.075-.75-.537-1.257-1.284-1.526-2.24-.27-.956-.434-2.212-.492-3.766v-23.22c0-.417.208-.628.628-.628.358 0 1.12.015 2.284.046 1.168.03 2.421.06 3.766.089 1.345.03 2.66.076 3.944.135 1.287.06 2.226.12 2.826.179 1.732.18 2.896.582 3.496 1.21.595.628.987 1.27 1.165 1.928.18.599.283 1.121.314 1.568.03.45.044.912.044 1.39 0 .538.209.807.628.807.298 0 .478-.193.537-.583.061-.388.092-.762.092-1.12 0-.18.013-.494.044-.941.028-.449.058-.956.089-1.524.03-.569.058-1.136.089-1.704.03-.567.075-1.09.136-1.569.12-1.494.267-2.629.447-3.407.181-.775.27-1.313.27-1.613 0-.478-.15-.717-.45-.717-.24 0-.687.389-1.342 1.164-.42.48-.96.778-1.615.898a39.56 39.56 0 0 1-2.602.358c-.536.06-1.522.104-2.956.134-1.435.032-2.96.046-4.572.046h-6.726c-.358 0-.536-.3-.536-.897v-24.744c0-.597.178-.896.536-.896h2.062c1.195 0 2.48.015 3.855.044 1.376.03 2.69.06 3.946.09 1.254.031 2.063.076 2.421.134 2.39.3 3.974.703 4.75 1.21.778.509 1.314 1.122 1.614 1.839.24.537.39 1.135.448 1.792.061.659.092 1.137.092 1.434 0 .778.236 1.166.717 1.166.177 0 .314-.103.403-.314.088-.208.163-.432.225-.672.058-.238.102-.641.133-1.21.03-.568.075-1.165.133-1.793.062-.628.106-1.21.137-1.748.027-.538.044-.926.044-1.166.12-1.255.27-2.196.448-2.824.18-.628.27-1.09.27-1.39 0-.537-.12-.807-.36-.807a1.12 1.12 0 0 0-.628.18c-.177.12-.389.21-.628.269-.836.18-2.12.33-3.854.447-.537 0-1.868.017-3.988.046-2.124.03-4.41.045-6.86.045h-9.682l-3.677-.18a56.346 56.346 0 0 0-3.226-.09h-3.227c-.959 0-1.434.24-1.434.719 0 .358.236.537.717.537a35 35 0 0 1 1.568.045c.628.03 1.12.105 1.478.224 1.495.3 2.482.838 2.96 1.614.478.777.775 1.943.897 3.496.059.717.103 1.479.134 2.286.028.808.044 1.898.044 3.273v29.585c0 4.302-.016 8.145-.044 11.52-.03 3.376-.167 6.022-.403 7.934-.18 1.315-.436 2.42-.762 3.316-.33.897-.942 1.437-1.84 1.614-.416.12-.866.212-1.344.27-.478.061-.926.089-1.346.089-.478 0-.717.18-.717.54 0 .477.478.716 1.437.716.656 0 1.462-.03 2.42-.089a43.481 43.481 0 0 1 2.78-.091 40.829 40.829 0 0 1 2.42-.09h1.165c.656 0 1.554.014 2.69.045 1.134.03 2.568.103 4.302.225 1.735.059 3.841.12 6.32.178s5.425.092 8.832.092c.895 0 1.612-.017 2.151-.048.54-.03.987-.119 1.346-.266.358-.15.628-.373.806-.673.18-.3.358-.747.539-1.345.12-.478.236-1.167.358-2.062.12-.898.236-1.807.359-2.735.12-.925.222-1.762.314-2.51.089-.747.133-1.211.133-1.389 0-.3-.014-.597-.044-.898-.03-.297-.195-.447-.492-.447zm83.194-55.675c-1.851 0-3.466.046-4.842.135-1.375.09-2.3.135-2.779.135-.239 0-.672-.014-1.298-.045-.628-.029-1.375-.06-2.242-.09s-1.793-.058-2.78-.089c-.986-.03-1.987-.046-3.004-.046-1.195 0-1.792.211-1.792.628 0 .419.239.628.717.628.358 0 .972.031 1.84.09.864.06 1.717.179 2.553.358 1.376.358 2.288 1.137 2.735 2.332.448 1.196.7 3.258.762 6.185l.986 45.543c-.717-.717-1.823-1.895-3.318-3.54a1519.302 1519.302 0 0 0-5.2-5.694c-1.97-2.15-4.077-4.452-6.32-6.903-2.24-2.45-4.469-4.87-6.678-7.262-3.468-3.705-6.828-7.32-10.085-10.847-3.26-3.527-6.204-6.694-8.833-9.503-2.629-2.809-4.794-5.156-6.497-7.039s-2.735-3.003-3.093-3.361a35.873 35.873 0 0 1-1.66-1.794c-.628-.717-1.12-1.076-1.478-1.076s-.614.314-.764.943c-.15.626-.223 1.807-.223 3.54l-.089 51.371c0 4.064-.166 6.904-.494 8.516-.328 1.614-1.062 2.57-2.196 2.87a7.891 7.891 0 0 1-2.062.448c-.717.061-1.256.089-1.615.089-.478 0-.717.18-.717.54 0 .477.478.716 1.434.716 2.032 0 3.869-.044 5.514-.136 1.643-.089 2.674-.133 3.093-.133.417 0 1.465.044 3.138.133 1.673.092 3.796.136 6.364.136 1.079 0 1.615-.239 1.615-.717 0-.358-.239-.539-.717-.539-.42 0-1.062-.028-1.929-.089a12.267 12.267 0 0 1-2.554-.447 3.555 3.555 0 0 1-1.523-.898c-.42-.417-.761-1.031-1.03-1.837-.27-.809-.482-1.823-.629-3.049-.15-1.225-.256-2.765-.314-4.616l-1.164-42.945c.717.838 1.85 2.108 3.404 3.81 1.554 1.704 3.377 3.722 5.47 6.052 2.092 2.332 4.377 4.857 6.858 7.576a836.847 836.847 0 0 0 7.665 8.293c2.39 2.57 4.9 5.23 7.532 7.979 2.629 2.75 5.08 5.305 7.35 7.665 2.271 2.362 4.2 4.335 5.784 5.917 1.581 1.584 2.493 2.495 2.735 2.734 1.195 1.195 2.165 2.168 2.912 2.913a37.86 37.86 0 0 0 1.837 1.748c.478.42.853.703 1.123.853.267.147.492.225.673.225.177 0 .31-.06.403-.18.088-.12.163-.39.222-.806.061-.417.105-1.045.136-1.885.028-.836.044-2 .044-3.496l.178-52.535c0-2.69.181-4.617.54-5.782s1.283-1.897 2.779-2.197c.539-.119.97-.194 1.3-.224a9.81 9.81 0 0 1 .85-.045c.66 0 .987-.21.987-.628 0-.417-.539-.628-1.614-.628zm73.961 51.55c-.417 0-.717.45-.895 1.346-.122.836-.464 2.048-1.03 3.63-.57 1.584-1.332 2.884-2.288 3.901-1.793 1.851-3.988 3.063-6.59 3.63-2.598.57-5.602.85-9.01.85-4.782 0-9.16-.908-13.134-2.732-3.974-1.823-7.381-4.243-10.219-7.262-2.84-3.018-5.052-6.5-6.633-10.445a32.897 32.897 0 0 1-2.377-12.371c0-4.603.523-8.86 1.568-12.776 1.045-3.915 3.213-7.455 6.5-10.623.776-.777 1.734-1.554 2.868-2.332 1.137-.775 2.527-1.479 4.17-2.107 1.644-.628 3.57-1.135 5.783-1.524 2.209-.388 4.81-.582 7.8-.582 3.944 0 7.53.508 10.759 1.524 3.226 1.017 5.616 2.21 7.17 3.585 1.195 1.017 2.12 2.362 2.779 4.035.659 1.674.987 3.377.987 5.11 0 1.255.239 1.883.717 1.883s.747-.628.808-1.883c0-.359.014-.896.045-1.613.028-.717.044-1.525.044-2.421s.014-1.808.045-2.735c.03-.925.075-1.748.133-2.465.12-1.613.225-2.764.314-3.451.092-.687.136-1.21.136-1.57 0-.298-.077-.522-.225-.672-.15-.149-.464-.253-.942-.314a55.529 55.529 0 0 1-4.346-.538 452.631 452.631 0 0 1-4.797-.807 56.282 56.282 0 0 0-6.815-.852c-2.329-.147-4.39-.224-6.186-.224-3.466 0-6.59.256-9.369.763-2.779.509-5.274 1.18-7.484 2.017-2.212.838-4.185 1.853-5.917 3.048-1.734 1.197-3.26 2.452-4.571 3.766-1.974 1.972-3.619 4.078-4.933 6.32-1.315 2.241-2.346 4.453-3.094 6.634-.747 2.183-1.27 4.274-1.567 6.276-.3 2.003-.447 3.75-.447 5.245 0 2.15.163 4.378.491 6.678a35.39 35.39 0 0 0 1.704 6.859c.806 2.272 1.912 4.513 3.316 6.723 1.406 2.212 3.185 4.305 5.336 6.275 3.585 3.23 7.723 5.65 12.417 7.262 4.691 1.615 10.413 2.42 17.167 2.42 1.434 0 2.915-.044 4.438-.133a101.17 101.17 0 0 0 4.438-.358 38.05 38.05 0 0 0 4.033-.628c1.256-.27 2.331-.584 3.23-.943.836-.358 1.358-.67 1.567-.939s.464-.823.761-1.66c.24-.774.478-1.778.72-3.003.236-1.223.447-2.435.625-3.63.18-1.195.328-2.257.45-3.182.12-.928.178-1.481.178-1.66a3.01 3.01 0 0 0-.133-.941c-.089-.269-.256-.403-.495-.403zm53.477 4.572c-.03-.297-.195-.447-.492-.447-.359 0-.628.447-.809 1.345-.3 1.854-.748 3.271-1.345 4.258-.598.986-1.493 1.717-2.688 2.195-1.197.481-2.631.765-4.304.853a82.785 82.785 0 0 1-4.303.134c-2.212 0-3.977-.09-5.288-.27-1.318-.178-2.349-.536-3.093-1.075-.75-.537-1.257-1.284-1.526-2.24-.27-.956-.434-2.212-.492-3.766v-23.22c0-.417.208-.628.628-.628.358 0 1.12.015 2.284.046 1.168.03 2.421.06 3.766.089 1.345.03 2.66.076 3.944.135 1.286.06 2.226.12 2.826.179 1.732.18 2.896.582 3.496 1.21.595.628.987 1.27 1.165 1.928.18.599.283 1.121.314 1.568.03.45.044.912.044 1.39 0 .538.209.807.628.807.298 0 .478-.193.537-.583.06-.388.091-.762.091-1.12 0-.18.014-.494.045-.941.028-.449.058-.956.089-1.524.03-.569.058-1.136.089-1.704.03-.567.075-1.09.136-1.569.12-1.494.267-2.629.447-3.407.181-.775.27-1.313.27-1.613 0-.478-.15-.717-.45-.717-.24 0-.687.389-1.343 1.164-.42.48-.958.778-1.614.898a39.56 39.56 0 0 1-2.602.358c-.536.06-1.522.104-2.957.134-1.434.032-2.96.046-4.571.046h-6.726c-.358 0-.536-.3-.536-.897v-24.744c0-.597.178-.896.536-.896h2.062c1.195 0 2.48.015 3.855.044 1.376.03 2.69.06 3.946.09 1.254.031 2.063.076 2.421.134 2.39.3 3.974.703 4.75 1.21.778.509 1.314 1.122 1.614 1.839.24.537.39 1.135.448 1.792a17.5 17.5 0 0 1 .091 1.434c0 .778.237 1.166.717 1.166.178 0 .315-.103.403-.314.09-.208.164-.432.226-.672.058-.238.102-.641.133-1.21.03-.568.075-1.165.133-1.793.061-.628.106-1.21.137-1.748.027-.538.044-.926.044-1.166.12-1.255.27-2.196.447-2.824.181-.628.27-1.09.27-1.39 0-.537-.12-.807-.359-.807s-.447.061-.628.18c-.177.12-.389.21-.628.269-.836.18-2.12.33-3.854.447-.537 0-1.868.017-3.988.046a479.3 479.3 0 0 1-6.86.045h-9.682l-3.677-.18a56.343 56.343 0 0 0-3.226-.09h-3.227c-.959 0-1.434.24-1.434.719 0 .358.236.537.717.537.417 0 .94.016 1.567.045.629.03 1.12.105 1.479.224 1.495.3 2.482.838 2.96 1.614.478.777.775 1.943.897 3.496.059.717.103 1.479.134 2.286.028.808.044 1.898.044 3.273v29.585c0 4.302-.016 8.145-.044 11.52-.03 3.376-.167 6.022-.403 7.934-.18 1.315-.436 2.42-.762 3.316-.33.897-.942 1.437-1.84 1.614-.416.12-.867.212-1.345.27-.478.061-.925.089-1.345.089-.478 0-.717.18-.717.54 0 .477.478.716 1.437.716.656 0 1.462-.03 2.42-.089a43.481 43.481 0 0 1 2.78-.091 40.829 40.829 0 0 1 2.42-.09h1.165c.656 0 1.554.014 2.69.045 1.134.03 2.568.103 4.302.225 1.735.059 3.841.12 6.32.178s5.425.092 8.832.092c.895 0 1.612-.017 2.151-.048.54-.03.987-.119 1.345-.266.359-.15.629-.373.806-.673.181-.3.359-.747.54-1.345.12-.478.236-1.167.358-2.062.12-.898.236-1.807.359-2.735.12-.925.222-1.762.314-2.51.089-.747.133-1.211.133-1.389 0-.3-.014-.597-.044-.898zm-313.564-85.6h10.63l2.966 7.7h3.832L679.31 50.908h-3.624l-9.766 25.425h3.574l2.793-7.701zm3.763-10.197a32.68 32.68 0 0 0 1.37-4.856c.392 1.375.993 3.133 1.804 5.272l2.654 7.04h-8.62l2.792-7.456zm66.753 17.898l7.387-21.28v21.28h3.243V50.907h-4.527l-6.087 17.69a167.323 167.323 0 0 0-1.353 4.076c-.256-.834-.659-2.087-1.214-3.764l-6.017-18.002h-5.064v25.425h3.243V54.688l7.351 21.644h3.038zm56.864-25.425h-3.366v25.425h3.366V50.907zm46.234 13.77h14.065v-2.983h-14.065v-7.787h15.018v-3h-18.384v25.425h18.974v-3H845.9v-8.655zm60.316-8.325l13.354 19.98h3.451V50.907H919.8v19.962l-13.357-19.962h-3.449v25.425h3.224v-19.98zm72.263 16.823c-.98.382-2.115.572-3.399.572-1.445 0-2.745-.251-3.901-.754s-2.01-1.162-2.557-1.976c-.55-.816-.9-1.86-1.05-3.131l-3.175.276c.048 1.701.512 3.224 1.395 4.57.887 1.349 2.107 2.358 3.66 3.027 1.557.671 3.483 1.006 5.784 1.006 1.818 0 3.449-.332 4.9-.997 1.45-.665 2.565-1.596 3.34-2.792.773-1.196 1.162-2.472 1.162-3.824 0-1.365-.353-2.57-1.059-3.616-.706-1.046-1.798-1.91-3.277-2.593-1.02-.462-2.895-1.003-5.627-1.621-2.735-.619-4.428-1.223-5.075-1.814-.659-.589-.987-1.34-.987-2.254 0-1.052.464-1.95 1.395-2.697s2.413-1.118 4.45-1.118c1.954 0 3.43.41 4.43 1.23 1 .822 1.587 2.036 1.76 3.643l3.226-.242c-.059-1.492-.473-2.828-1.248-4.008-.776-1.178-1.882-2.071-3.321-2.679-1.44-.607-3.102-.91-4.986-.91-1.712 0-3.268.29-4.666.867-1.398.578-2.463 1.426-3.19 2.54-.729 1.116-1.093 2.317-1.093 3.6 0 1.168.297 2.223.892 3.165.595.942 1.5 1.731 2.715 2.368.937.496 2.571 1.025 4.908 1.587 2.335.56 3.844.974 4.525 1.24 1.064.403 1.829.904 2.29 1.5.464.595.695 1.29.695 2.09 0 .786-.242 1.512-.72 2.176-.48.665-1.212 1.188-2.196 1.569zM135.35 97.935c-.057 3.245 1.11 6.261 2.902 9.078 2.306 3.672 3.643 7.57 2.448 12.295-1.139-4.497-3.187-7.855-6.973-10.416-2.675-1.822-4.809-4.411-6.175-8.054-.398.085-.768.17-1.138.228l-4.184 21.884-4.468-21.941a40.53 40.53 0 0 1-2.675-.598c-2.333 2.248-3.643 5.208-4.382 8.48-.968 4.213-2.76 7.94-6.973 10.417 2.39-3.985 3.33-7.77 2.448-12.266-.598-3.187-.285-6.545 1.309-10.074l-.94-.683-18.469 12.55 12.408-18.669a27.394 27.394 0 0 1-1.508-2.334c-3.245-.057-6.261 1.11-9.079 2.903-3.67 2.305-7.541 3.671-12.265 2.448 4.496-1.139 7.826-3.16 10.387-6.973 1.822-2.675 4.411-4.81 8.054-6.175-.086-.37-.142-.74-.2-1.139l-21.912-4.183 21.941-4.44c.17-.91.37-1.82.598-2.703-2.248-2.334-5.208-3.643-8.48-4.383-4.213-.939-7.912-2.76-10.417-6.943 3.984 2.362 7.798 3.3 12.294 2.447 3.188-.626 6.517-.313 10.075 1.28.199-.313.427-.626.654-.939L88.705 41.474C29.967 42.27 0 55.134 0 55.134V110.2s34.89-8.822 48.835 0c13.944 8.822 15.254-3.13 42.232 23.877 7.94 7.94 17.417 11.326 26.808 12.151-1.964 4.041-6.204 9.875-13.944 9.135-11.754-1.11-26.467-12.834-26.467-12.834s5.208 21.856 67.276 21.03a153.257 153.257 0 0 0 5.72-22.539c1.85-10.387 2.846-21.77 2.76-34.264l-15.538-10.302c-.74.513-1.508.996-2.333 1.48zm-2.253 87.357c-12.835.017-37.325-1.338-49.713-10.803.218.706 4.505 11.497 39.537 14.953 2.533.25 4.089 2.919 3.024 5.231a3.994 3.994 0 0 1-3.776 2.338c-8.217-.296-33.535-2.385-50.566-16.66 0 0-3.512 7.377 28.285 16.115 1.959.538 3.855 1.394 5.452 2.65 1.516 1.191 2.803 2.707 1.893 4.002-1.845 2.554-40.933 11.22-87.829-50.705a1.31 1.31 0 0 0-1.036-.52H6.565c-.837 0-1.464.773-1.275 1.588C7.465 162.877 21.235 211.72 77.464 240c0 0 .028-.028.114-.057 1.081-.484 10.216-4.696 22.169-13.062.057-.057.142-.114.256-.2 10.885-8.273 23.84-20.926 34.225-39.422.488-.869-.136-1.969-1.132-1.967zm-45.672-21.675c.228.769 4.554 12.408 51.596 14.287h.028c.854-1.85 1.68-3.757 2.476-5.72-13.176.626-38.39.426-54.1-8.567z" fill="#313491"/><path d="M202.897 182.515a29.305 29.305 0 0 1 2.95-1.012c.59-.17 1.187-.322 1.791-.464a14.657 14.657 0 0 1 1.665-.294c.366-.056.653-.07.864-.042.212.028.344.042.4.042a.316.316 0 0 0 .233-.106c.07-.07.048-.203-.064-.4a49.178 49.178 0 0 0-.59-1.076c-.169-.294-.323-.553-.464-.778-.168-.253-.31-.38-.42-.38a1.01 1.01 0 0 0-.4.105c-.156.072-.416.22-.782.442-.083.058-.357.22-.821.486-.464.267-.998.59-1.602.97-.605.378-1.216.764-1.833 1.159-.618.392-1.11.717-1.476.97-.197.111-.294.225-.294.336 0 .17.07.253.21.253.084 0 .295-.07.633-.211zm10.41 29.631c-.169 0-.295.211-.379.634-.141.87-.351 1.537-.632 2-.282.465-.703.81-1.264 1.035-.563.225-1.237.355-2.024.4-.787.042-1.461.061-2.023.061-1.04 0-1.869-.042-2.487-.125s-1.103-.253-1.454-.506a1.876 1.876 0 0 1-.717-1.053c-.126-.45-.204-1.04-.232-1.77v-10.917c0-.197.099-.297.296-.297.168 0 .527.008 1.074.022l1.77.042c.633.013 1.251.036 1.856.063a28.22 28.22 0 0 1 1.327.084c.814.086 1.363.275 1.644.57.28.294.464.597.547.906.085.28.134.528.149.739.014.208.02.428.02.653 0 .253.098.378.295.378.14 0 .225-.092.253-.273.028-.183.042-.358.042-.528 0-.083.007-.23.022-.441.014-.212.027-.45.042-.717l.042-.8a9.73 9.73 0 0 1 .064-.74c.055-.7.126-1.237.21-1.6.084-.365.126-.618.126-.76 0-.225-.07-.336-.21-.336-.113 0-.324.184-.632.548-.198.225-.45.364-.759.42-.31.058-.717.113-1.223.169-.253.028-.717.05-1.39.064s-1.392.02-2.15.02h-3.162c-.168 0-.253-.14-.253-.42v-11.634c0-.28.085-.422.253-.422h.97c.562 0 1.166.008 1.812.022l1.855.041c.59.014.969.037 1.138.064 1.123.14 1.868.331 2.233.567.366.24.619.528.76.865.112.253.182.536.21.845.028.308.042.533.042.672 0 .367.113.55.338.55.084 0 .147-.05.19-.15a2.08 2.08 0 0 0 .104-.314 3.58 3.58 0 0 0 .064-.57c.014-.266.035-.547.063-.842.027-.297.048-.57.064-.822.013-.253.02-.437.02-.548.056-.592.127-1.034.212-1.328.083-.295.126-.511.126-.653 0-.253-.057-.381-.17-.381-.112 0-.21.03-.294.086a.957.957 0 0 1-.295.125c-.394.086-.997.156-1.813.211-.253 0-.878.009-1.875.023a233.5 233.5 0 0 1-3.225.02h-4.552l-1.727-.084a26.27 26.27 0 0 0-1.518-.042h-1.517c-.45 0-.675.111-.675.336 0 .17.112.253.337.253.196 0 .442.009.738.023.295.013.527.047.695.105.702.14 1.166.392 1.39.759.226.364.366.911.423 1.642.027.337.049.695.063 1.076.014.378.02.892.02 1.537v13.91c0 2.023-.006 3.829-.02 5.416-.014 1.587-.078 2.832-.19 3.73-.084.62-.203 1.139-.358 1.561-.155.42-.443.673-.864.76a4.246 4.246 0 0 1-.632.124 5.184 5.184 0 0 1-.632.042c-.226 0-.338.086-.338.253 0 .225.225.336.675.336.309 0 .688-.014 1.138-.042.45-.027.885-.041 1.306-.041.45-.028.829-.042 1.139-.042h.547a49.562 49.562 0 0 1 3.288.125c.814.028 1.805.058 2.972.086 1.166.028 2.55.042 4.15.042.423 0 .76-.008 1.012-.022a1.95 1.95 0 0 0 .633-.125.756.756 0 0 0 .379-.317c.085-.14.17-.35.253-.631a9.31 9.31 0 0 0 .17-.97l.168-1.287c.055-.433.105-.828.147-1.178.043-.353.064-.57.064-.653 0-.142-.009-.28-.021-.423-.015-.141-.092-.21-.232-.21zm30.433-21.96l.041.463c.028.312.064.506.106.592.041.084.12.125.232.125.196 0 .294-.183.294-.547 0-.111.007-.359.021-.74.014-.377.028-.805.043-1.283l.042-1.434c.014-.478.02-.87.02-1.179 0-.141-.006-.26-.02-.358-.014-.1-.078-.147-.189-.147-.085 0-.225.019-.422.06-.196.042-.45.092-.759.148-.336.058-.752.106-1.242.147-.494.045-1.076.064-1.75.064h-15.806c-.253 0-.717-.02-1.391-.064a60.121 60.121 0 0 1-1.939-.147c-.562-.056-.977-.153-1.243-.295-.269-.139-.471-.21-.612-.21-.084 0-.162.1-.232.297-.07.194-.133.364-.189.505-.029.084-.091.337-.19.759-.099.42-.204.884-.316 1.39a53.54 53.54 0 0 0-.296 1.411c-.083.437-.126.712-.126.823 0 .253.07.378.211.378.168 0 .309-.139.421-.42.057-.141.134-.303.232-.486.099-.18.26-.456.485-.82.168-.253.366-.464.59-.634.225-.169.507-.302.843-.4a7.682 7.682 0 0 1 1.202-.23 13.575 13.575 0 0 1 1.665-.087l6.237-.083v17.828c0 2.024-.007 3.83-.02 5.417-.014 1.587-.078 2.832-.19 3.73-.084.62-.204 1.139-.358 1.561-.156.42-.443.673-.864.76a4.282 4.282 0 0 1-.632.124 5.184 5.184 0 0 1-.633.042c-.225 0-.337.086-.337.253 0 .225.225.336.675.336.308 0 .688-.006 1.138-.02.449-.013.884-.027 1.306-.041.421-.014.794-.028 1.117-.042.323-.016.512-.022.569-.022.055 0 .246.006.57.022.322.014.729.028 1.22.042.493.014 1.033.028 1.624.042.59.013 1.18.02 1.77.02.45 0 .674-.112.674-.337 0-.167-.112-.253-.336-.253-.197 0-.485-.014-.864-.042a9.973 9.973 0 0 1-1.033-.125c-.647-.086-1.068-.339-1.264-.759-.198-.422-.324-.942-.38-1.561-.112-.898-.176-2.143-.19-3.73-.014-1.587-.02-3.393-.02-5.417v-17.828l5.31.083c1.012.028 1.847.106 2.508.234.66.125 1.18.286 1.56.483.379.198.652.437.822.718.168.28.267.575.295.883zm30.81 27.06c-.226 0-.486-.014-.78-.042a3.585 3.585 0 0 1-.906-.211 3.257 3.257 0 0 1-.738-.295c-.267-.139-.548-.378-.844-.717-.294-.336-.618-.8-.968-1.39-.352-.591-.71-1.35-1.076-2.275-.42-1.068-.947-2.404-1.58-4.005-.632-1.6-1.293-3.293-1.981-5.08-.69-1.785-1.384-3.588-2.086-5.417a660.283 660.283 0 0 1-1.918-5.036c-.576-1.531-1.068-2.829-1.475-3.899a60.448 60.448 0 0 0-.78-1.981c-.253-.645-.436-1.06-.549-1.243-.112-.183-.239-.275-.38-.275s-.266.1-.378.298c-.113.194-.295.644-.548 1.347l-9.567 26.174c-.395 1.07-.837 1.96-1.329 2.677-.492.717-1.23 1.145-2.212 1.287-.17.027-.38.05-.632.063-.253.014-.45.02-.59.02-.254 0-.38.086-.38.253 0 .225.267.336.8.336.506 0 1.012-.006 1.518-.02.506-.013.984-.027 1.434-.041.449-.014.835-.028 1.159-.042.322-.016.54-.022.653-.022.112 0 .301.006.568.022a119.232 119.232 0 0 0 1.834.084c.338.013.633.02.886.02.42 0 .632-.112.632-.337 0-.167-.142-.253-.421-.253h-.423c-.365 0-.724-.097-1.074-.295-.351-.197-.526-.506-.526-.928 0-.786.195-1.726.589-2.824l2.529-7.459c.085-.225.225-.339.422-.339h9.062c.168 0 .294.086.379.253l3.92 10.37c.14.338.168.597.085.78-.085.183-.198.303-.338.359-.197.055-.295.155-.295.294 0 .142.112.217.337.23.225.017.533.037.928.065a100.972 100.972 0 0 0 4.13.083h2.487c.225 0 .421-.02.59-.061.169-.042.254-.133.254-.275 0-.167-.142-.253-.423-.253zm-12.603-13.362h-8.051c-.168 0-.21-.098-.127-.295l3.71-11.38c.197-.617.406-.617.632 0l4.004 11.38c.056.197 0 .295-.168.295zm34.71-1.031c-.717-.745-1.503-1.362-2.36-1.854s-1.68-.864-2.466-1.117c.506-.506.991-1.026 1.454-1.562.464-.531.885-1.1 1.264-1.707.38-.603.681-1.256.906-1.959.225-.703.338-1.49.338-2.36 0-.533-.113-1.158-.338-1.875-.225-.717-.653-1.407-1.285-2.065-.632-.662-1.497-1.223-2.592-1.687-1.096-.464-2.5-.695-4.216-.695-.983 0-1.869.02-2.654.061-.788.045-1.434.064-1.94.064-.056 0-.245-.005-.568-.02l-1.181-.044c-.463-.014-.963-.025-1.495-.041-.535-.014-1.04-.02-1.518-.02-.45 0-.675.111-.675.336 0 .17.113.253.338.253.196 0 .442.009.738.023.294.013.526.047.694.105.702.14 1.166.392 1.391.759.225.364.366.911.423 1.642.026.337.048.695.062 1.076.014.378.021.892.021 1.537v13.91c0 2.023-.007 3.829-.02 5.416-.015 1.587-.078 2.832-.19 3.73-.084.62-.204 1.139-.358 1.561-.156.42-.443.673-.864.76a4.246 4.246 0 0 1-.633.124 5.183 5.183 0 0 1-.632.042c-.225 0-.338.086-.338.253 0 .225.225.336.676.336.308 0 .688-.014 1.138-.042.449-.027.885-.041 1.306-.041.449-.028.828-.042 1.138-.042h.548a37.379 37.379 0 0 1 2.572.125c.617.028 1.221.058 1.812.086.589.028.996.042 1.221.042 1.798 0 3.373-.267 4.722-.8 1.348-.534 2.465-1.237 3.35-2.107a8.837 8.837 0 0 0 2.002-2.952 8.717 8.717 0 0 0 .674-3.329c0-1.237-.232-2.346-.694-3.33a9.624 9.624 0 0 0-1.77-2.592zm-12.286-15.027c0-.225.168-.378.506-.464a6.458 6.458 0 0 1 1.096-.167c.392-.028.702-.045.927-.045 1.04 0 1.917.212 2.634.634a5.22 5.22 0 0 1 1.748 1.665 7.4 7.4 0 0 1 .991 2.34c.211.87.317 1.742.317 2.612 0 .873-.142 1.673-.422 2.401-.281.734-.647 1.351-1.095 1.857-.225.253-.444.45-.653.59-.212.14-.45.252-.717.335a3.693 3.693 0 0 1-.991.15c-.394.014-.885.02-1.476.02-.786 0-1.377-.02-1.769-.064a9.284 9.284 0 0 1-.802-.106c-.197-.083-.294-.236-.294-.461v-11.297zm10.516 25.732c-.407.773-.913 1.384-1.517 1.834s-1.251.764-1.939.948c-.69.183-1.314.275-1.876.275-.197 0-.443-.008-.738-.022s-.618-.042-.97-.084-.701-.105-1.053-.189a4.413 4.413 0 0 1-.948-.339c-.337-.166-.59-.336-.758-.505a1.821 1.821 0 0 1-.402-.612 2.943 2.943 0 0 1-.189-.884c-.029-.353-.057-.78-.085-1.286 0-.167-.007-.584-.02-1.243-.014-.661-.021-1.44-.021-2.34v-7.923c0-.197.084-.295.253-.295h1.685c.338 0 .653.006.95.02.294.014.51.036.652.064a11.59 11.59 0 0 1 1.58.294c.55.142 1.187.45 1.918.929.816.56 1.483 1.195 2.002 1.895.52.703.934 1.434 1.244 2.193.308.758.527 1.517.653 2.276.127.759.19 1.448.19 2.065 0 1.18-.204 2.156-.611 2.929zm31.17-1.581c-.196 0-.323.183-.38.55a5.499 5.499 0 0 1-.38 1.306 4.688 4.688 0 0 1-.715 1.223c-.506.617-1.202.984-2.087 1.095-.885.111-1.89.17-3.014.17-.814 0-1.51-.023-2.086-.064-.576-.042-1.053-.1-1.432-.17-.38-.07-.69-.17-.929-.295a2.6 2.6 0 0 1-.61-.442c-.394-.366-.647-1.292-.758-2.781-.114-1.49-.17-3.78-.17-6.87v-13.996c0-.645.007-1.16.021-1.537.014-.38.035-.74.064-1.076.056-.73.189-1.286.4-1.664.211-.381.625-.626 1.244-.737.253-.058.513-.092.78-.105.266-.014.47-.023.61-.023.225 0 .337-.083.337-.253 0-.225-.225-.336-.674-.336-.31 0-.71.006-1.2.02-.492.016-.977.027-1.455.041-.478.017-.9.03-1.265.045-.365.014-.577.02-.632.02-.057 0-.246-.006-.568-.02-.324-.014-.717-.028-1.182-.045-.462-.014-.963-.025-1.495-.041-.535-.014-1.04-.02-1.517-.02-.45 0-.676.111-.676.336 0 .17.113.253.338.253.196 0 .442.009.738.023.295.013.527.047.695.105.702.14 1.166.392 1.39.759.226.364.366.911.423 1.642.027.337.049.695.063 1.076.014.378.02.892.02 1.537v13.91c0 2.023-.006 3.829-.02 5.416s-.078 2.832-.19 3.73c-.084.62-.204 1.139-.358 1.561-.155.42-.443.673-.864.76a4.246 4.246 0 0 1-.632.124 5.183 5.183 0 0 1-.633.042c-.225 0-.337.086-.337.253 0 .225.225.336.675.336a35.245 35.245 0 0 0 2.403-.083c.42 0 .793-.006 1.115-.02.324-.016.529-.022.612-.022.618 0 1.264.006 1.94.022.674.014 1.46.047 2.36.103.898.028 1.91.058 3.034.086 1.124.028 2.444.042 3.962.042.563 0 1.004-.014 1.328-.042.323-.028.569-.086.738-.17a.757.757 0 0 0 .359-.336c.069-.141.147-.336.23-.589.085-.311.161-.683.232-1.117.07-.436.14-.864.212-1.287.069-.422.119-.8.147-1.136.028-.34.041-.565.041-.676 0-.422-.083-.633-.252-.633zm16.144 5.269c-.198 0-.485-.014-.865-.042a9.973 9.973 0 0 1-1.032-.125c-.648-.086-1.069-.339-1.265-.759-.197-.422-.323-.942-.379-1.561-.113-.898-.176-2.143-.19-3.73-.014-1.587-.021-3.393-.021-5.417v-13.91c0-.644.007-1.158.02-1.536.015-.38.035-.74.065-1.076.055-.73.189-1.286.4-1.664.211-.381.596-.626 1.159-.737.253-.058.457-.092.611-.105.154-.014.302-.023.442-.023.225 0 .338-.083.338-.253 0-.225-.225-.336-.674-.336-.31 0-.69.006-1.138.02-.45.016-.886.027-1.307.041-.422.017-.794.03-1.117.045-.324.014-.514.02-.57.02-.056 0-.245-.006-.568-.02l-1.117-.045c-.421-.014-.871-.025-1.35-.041-.477-.014-.884-.02-1.22-.02-.451 0-.676.111-.676.336 0 .17.112.253.338.253.14 0 .337.014.59.042.253.028.49.072.716.128.871.197 1.35.984 1.434 2.36.026.336.048.694.062 1.075.014.378.021.892.021 1.537v13.91c0 2.023-.007 3.829-.02 5.416s-.078 2.832-.19 3.73c-.084.62-.204 1.139-.358 1.561-.156.42-.443.673-.864.76a4.246 4.246 0 0 1-.633.124 5.183 5.183 0 0 1-.632.042c-.225 0-.338.086-.338.253 0 .225.225.336.676.336.308 0 .688-.006 1.138-.02.449-.013.885-.027 1.306-.041.421-.014.793-.028 1.117-.042.323-.016.512-.022.568-.022.056 0 .246.006.57.022.323.014.73.028 1.222.042.492.014 1.034.028 1.623.042.59.013 1.18.02 1.77.02.449 0 .674-.112.674-.337 0-.167-.113-.253-.336-.253zm22.95-12.328c-.464-.773-1.096-1.582-1.897-2.424-.802-.842-1.82-1.756-3.057-2.74l-1.18-.928a35.333 35.333 0 0 1-2.508-2.107c-.66-.617-1.187-1.192-1.58-1.729-.394-.533-.668-1.058-.822-1.578a5.828 5.828 0 0 1-.231-1.665c0-1.545.497-2.748 1.495-3.604.998-.86 2.228-1.287 3.688-1.287.956 0 1.756.092 2.403.275s1.174.4 1.58.653c.408.253.71.506.907.759.196.253.322.436.38.547.14.225.26.57.358 1.034.098.461.161.82.189 1.073.028.17.057.303.085.4.027.1.112.15.252.15.196 0 .295-.325.295-.97 0-1.434.028-2.51.085-3.226a30.73 30.73 0 0 0 .085-1.243c0-.197-.142-.294-.423-.294-.168 0-.357-.014-.568-.042s-.513-.086-.906-.17a12.7 12.7 0 0 0-1.75-.316 20.058 20.058 0 0 0-2.17-.106c-1.35 0-2.558.184-3.626.55-1.068.364-1.98.884-2.738 1.56a6.875 6.875 0 0 0-1.75 2.4c-.408.929-.611 1.954-.611 3.077 0 .731.076 1.443.232 2.129.154.69.435 1.406.842 2.151s.963 1.51 1.666 2.296c.702.786 1.615 1.645 2.739 2.57l1.897 1.562c.899.759 1.657 1.44 2.276 2.043.618.606 1.117 1.195 1.496 1.77.38.578.653 1.168.821 1.77a7.42 7.42 0 0 1 .253 2.004c0 .673-.126 1.348-.379 2.024a5.302 5.302 0 0 1-1.116 1.79c-.492.52-1.117.947-1.876 1.286-.758.336-1.644.506-2.655.506a9.144 9.144 0 0 1-2.065-.234 6.57 6.57 0 0 1-1.876-.736 4.679 4.679 0 0 1-1.455-1.328c-.393-.548-.674-1.215-.842-2.001a6.697 6.697 0 0 1-.106-.865c-.015-.267-.02-.5-.02-.695 0-.31-.1-.464-.296-.464-.196 0-.309.225-.337.673-.029.339-.07.9-.126 1.687a39.211 39.211 0 0 0-.085 2.782c0 .561.028.934.085 1.117.055.183.237.345.547.484a10.4 10.4 0 0 0 2.74.886c.955.167 1.924.253 2.909.253 1.15 0 2.275-.133 3.371-.4a8.524 8.524 0 0 0 2.993-1.37c.73-.506 1.327-1.076 1.791-1.707a9.287 9.287 0 0 0 1.097-1.917 8.595 8.595 0 0 0 .547-1.857c.099-.589.148-1.095.148-1.517 0-.842-.085-1.651-.253-2.424-.169-.772-.485-1.545-.948-2.317zm24.024 0c-.464-.773-1.096-1.582-1.896-2.424-.802-.842-1.82-1.756-3.058-2.74l-1.18-.928a35.319 35.319 0 0 1-2.507-2.107c-.66-.617-1.187-1.192-1.58-1.729-.395-.533-.669-1.058-.823-1.578s-.23-1.076-.23-1.665c0-1.545.497-2.748 1.494-3.604.998-.86 2.228-1.287 3.688-1.287.956 0 1.757.092 2.403.275s1.174.4 1.581.653c.407.253.709.506.906.759.196.253.323.436.38.547.14.225.26.57.358 1.034.099.461.161.82.19 1.073.027.17.056.303.084.4.028.1.112.15.253.15.196 0 .294-.325.294-.97 0-1.434.028-2.51.085-3.226.056-.715.085-1.129.085-1.243 0-.197-.142-.294-.423-.294-.168 0-.357-.014-.568-.042s-.513-.086-.906-.17a12.7 12.7 0 0 0-1.75-.316 20.058 20.058 0 0 0-2.17-.106c-1.35 0-2.558.184-3.625.55-1.069.364-1.98.884-2.74 1.56a6.875 6.875 0 0 0-1.749 2.4c-.408.929-.611 1.954-.611 3.077 0 .731.076 1.443.232 2.129.154.69.435 1.406.842 2.151.407.745.963 1.51 1.666 2.296.702.786 1.615 1.645 2.74 2.57l1.896 1.562c.899.759 1.658 1.44 2.276 2.043.618.606 1.117 1.195 1.497 1.77.379.578.653 1.168.82 1.77a7.42 7.42 0 0 1 .254 2.004c0 .673-.127 1.348-.38 2.024a5.302 5.302 0 0 1-1.115 1.79c-.492.52-1.118.947-1.876 1.286-.76.336-1.644.506-2.656.506a9.143 9.143 0 0 1-2.065-.234c-.675-.152-1.3-.4-1.876-.736a4.68 4.68 0 0 1-1.455-1.328c-.393-.548-.674-1.215-.842-2.001a6.696 6.696 0 0 1-.105-.865c-.016-.267-.021-.5-.021-.695 0-.31-.099-.464-.296-.464-.196 0-.309.225-.336.673-.03.339-.071.9-.127 1.687a39.213 39.213 0 0 0-.085 2.782c0 .561.028.934.085 1.117.056.183.238.345.548.484.87.422 1.784.717 2.74.886.955.167 1.923.253 2.908.253 1.15 0 2.275-.133 3.371-.4a8.524 8.524 0 0 0 2.994-1.37c.73-.506 1.327-1.076 1.79-1.707a9.286 9.286 0 0 0 1.097-1.917 8.593 8.593 0 0 0 .548-1.857c.098-.589.147-1.095.147-1.517 0-.842-.085-1.651-.253-2.424-.168-.772-.485-1.545-.948-2.317zm27.08 7.228c-.17 0-.296.211-.38.634-.14.87-.35 1.537-.631 2-.282.465-.703.81-1.265 1.035-.563.225-1.237.355-2.023.4-.788.042-1.462.061-2.023.061-1.041 0-1.87-.042-2.488-.125s-1.103-.253-1.453-.506a1.876 1.876 0 0 1-.717-1.053c-.127-.45-.204-1.04-.232-1.77v-10.917c0-.197.098-.297.296-.297.168 0 .526.008 1.074.022.547.014 1.138.028 1.77.042.633.013 1.25.036 1.855.063a28.22 28.22 0 0 1 1.327.084c.815.086 1.364.275 1.644.57.28.294.464.597.548.906.085.28.133.528.148.739.014.208.021.428.021.653 0 .253.098.378.295.378.14 0 .225-.092.253-.273.028-.183.041-.358.041-.528 0-.083.007-.23.023-.441.014-.212.026-.45.041-.717l.042-.8c.014-.268.035-.515.064-.74.056-.7.126-1.237.21-1.6.085-.365.126-.618.126-.76 0-.225-.07-.336-.21-.336-.112 0-.323.184-.632.548-.197.225-.45.364-.759.42-.31.058-.717.113-1.222.169-.253.028-.717.05-1.391.064s-1.391.02-2.15.02h-3.161c-.168 0-.253-.14-.253-.42v-11.634c0-.28.085-.422.253-.422h.97c.561 0 1.166.008 1.812.022l1.855.041c.589.014.968.037 1.138.064 1.123.14 1.867.331 2.233.567.365.24.618.528.759.865.112.253.183.536.21.845s.042.533.042.672c0 .367.113.55.338.55.085 0 .147-.05.19-.15.042-.097.077-.203.105-.314.028-.114.048-.303.064-.57a20.2 20.2 0 0 1 .062-.842c.028-.297.049-.57.064-.822.014-.253.02-.437.02-.548.057-.592.127-1.034.212-1.328.084-.295.127-.511.127-.653 0-.253-.057-.381-.17-.381-.112 0-.21.03-.295.086a.957.957 0 0 1-.294.125c-.395.086-.998.156-1.814.211-.252 0-.878.009-1.874.023-.998.014-2.073.02-3.225.02h-4.552l-1.728-.084c-.48-.028-.985-.042-1.517-.042h-1.518c-.45 0-.675.111-.675.336 0 .17.113.253.338.253.196 0 .442.009.738.023.294.013.526.047.694.105.702.14 1.166.392 1.391.759.225.364.366.911.423 1.642.026.337.048.695.062 1.076.014.378.021.892.021 1.537v13.91c0 2.023-.007 3.829-.02 5.416-.015 1.587-.078 2.832-.19 3.73-.084.62-.204 1.139-.358 1.561-.156.42-.443.673-.864.76a4.247 4.247 0 0 1-.633.124 5.184 5.184 0 0 1-.632.042c-.225 0-.338.086-.338.253 0 .225.225.336.676.336.308 0 .688-.014 1.138-.042.449-.027.885-.041 1.306-.041.449-.028.828-.042 1.138-.042h.548a49.562 49.562 0 0 1 3.288.125c.814.028 1.804.058 2.972.086 1.165.028 2.55.042 4.15.042.423 0 .759-.008 1.012-.022a1.95 1.95 0 0 0 .632-.125.756.756 0 0 0 .38-.317 2.8 2.8 0 0 0 .252-.631c.057-.225.113-.548.17-.97l.168-1.287c.056-.433.106-.828.147-1.178a7.81 7.81 0 0 0 .064-.653c0-.142-.008-.28-.02-.423-.016-.141-.092-.21-.233-.21zm47.333 5.1c-.225 0-.583-.014-1.074-.042-.492-.028-1.047-.139-1.664-.336a2.21 2.21 0 0 1-1.097-.74 4.077 4.077 0 0 1-.653-1.158 8.16 8.16 0 0 1-.358-1.306c-.085-.45-.14-.87-.169-1.265l-2.823-25.88c-.085-.758-.253-1.139-.506-1.139-.226 0-.436.225-.632.675l-12.392 26.472-12.898-26.513c-.198-.423-.409-.634-.633-.634-.253 0-.407.253-.464.759l-3.035 27.483c-.083.814-.21 1.567-.38 2.254-.167.689-.604 1.103-1.305 1.245-.31.055-.556.092-.738.105-.184.014-.359.02-.527.02-.28 0-.42.072-.42.211 0 .253.237.378.715.378.28 0 .604-.006.97-.02l1.074-.041c.351-.014.668-.028.949-.042.28-.016.464-.022.547-.022.085 0 .26.006.527.022.267.014.59.028.97.042l1.202.042c.421.013.828.02 1.221.02.506 0 .76-.126.76-.379 0-.139-.113-.211-.337-.211a7.425 7.425 0 0 1-1.602-.211 1.28 1.28 0 0 1-.78-.462 1.284 1.284 0 0 1-.317-.845v-1.095c0-.364.014-.717.043-1.053l1.686-19.56h.168c.085.198.267.612.549 1.246.28.63.617 1.37 1.012 2.212.391.842.807 1.742 1.242 2.698.436.956.85 1.848 1.244 2.677l1.011 2.128c.28.59.449.943.506 1.054l.717 1.412c.421.828.899 1.778 1.433 2.845.533 1.068 1.06 2.13 1.58 3.183s.92 1.834 1.202 2.34c.393.758.673 1.27.843 1.536.168.267.322.4.463.4.197 0 .365-.138.506-.419.14-.28.436-.887.885-1.815l10.327-21.916h.126l2.024 21.75c.055.391.07.736.041 1.03s-.098.46-.21.487c-.197.028-.295.125-.295.295 0 .11.077.197.232.252s.47.112.949.17c.392.028.934.056 1.621.083l2.13.084c.73.027 1.404.05 2.022.064.619.013 1.04.02 1.265.02.253 0 .464-.029.632-.084.168-.056.253-.153.253-.295 0-.139-.112-.211-.338-.211zm22.635-5.1c-.17 0-.296.211-.38.634-.14.87-.35 1.537-.631 2-.282.465-.704.81-1.265 1.035-.563.225-1.237.355-2.023.4-.788.042-1.462.061-2.023.061-1.041 0-1.87-.042-2.488-.125-.618-.083-1.103-.253-1.453-.506a1.876 1.876 0 0 1-.717-1.053c-.127-.45-.204-1.04-.232-1.77v-10.917c0-.197.098-.297.296-.297.168 0 .526.008 1.074.022.547.014 1.138.028 1.77.042.632.013 1.25.036 1.855.063.603.028 1.047.056 1.327.084.815.086 1.363.275 1.644.57s.464.597.548.906c.084.28.133.528.148.739.014.208.021.428.021.653 0 .253.097.378.295.378.14 0 .225-.092.253-.273.027-.183.041-.358.041-.528 0-.083.007-.23.023-.441l.041-.717.042-.8c.014-.268.035-.515.064-.74.055-.7.126-1.237.21-1.6.084-.365.126-.618.126-.76 0-.225-.07-.336-.21-.336-.112 0-.323.184-.632.548-.197.225-.45.364-.759.42-.31.058-.717.113-1.222.169-.253.028-.717.05-1.391.064s-1.391.02-2.15.02h-3.161c-.169 0-.253-.14-.253-.42v-11.634c0-.28.084-.422.253-.422h.97c.561 0 1.165.008 1.812.022l1.855.041c.589.014.968.037 1.138.064 1.122.14 1.867.331 2.233.567.365.24.618.528.758.865.113.253.184.536.212.845.027.308.041.533.041.672 0 .367.113.55.338.55.085 0 .147-.05.19-.15.042-.097.077-.203.105-.314.027-.114.048-.303.064-.57.013-.266.034-.547.062-.842.028-.297.049-.57.064-.822.014-.253.02-.437.02-.548.056-.592.127-1.034.212-1.328.083-.295.127-.511.127-.653 0-.253-.057-.381-.17-.381s-.21.03-.295.086a.958.958 0 0 1-.294.125c-.395.086-.998.156-1.814.211-.253 0-.878.009-1.874.023-.998.014-2.073.02-3.225.02h-4.553l-1.727-.084c-.48-.028-.985-.042-1.517-.042h-1.518c-.45 0-.675.111-.675.336 0 .17.113.253.338.253.196 0 .442.009.738.023.294.013.526.047.694.105.702.14 1.166.392 1.391.759.225.364.366.911.423 1.642.026.337.048.695.062 1.076.014.378.021.892.021 1.537v13.91c0 2.023-.007 3.829-.02 5.416s-.079 2.832-.19 3.73c-.084.62-.204 1.139-.358 1.561-.156.42-.444.673-.865.76a4.247 4.247 0 0 1-.632.124 5.184 5.184 0 0 1-.632.042c-.225 0-.338.086-.338.253 0 .225.225.336.676.336.308 0 .687-.014 1.138-.042.448-.027.885-.041 1.306-.041.449-.028.828-.042 1.138-.042h.547a49.562 49.562 0 0 1 3.288.125c.814.028 1.805.058 2.972.086 1.166.028 2.55.042 4.151.042.423 0 .759-.008 1.012-.022a1.95 1.95 0 0 0 .632-.125.756.756 0 0 0 .38-.317 2.8 2.8 0 0 0 .252-.631c.057-.225.113-.548.17-.97l.168-1.287c.055-.433.106-.828.147-1.178a7.81 7.81 0 0 0 .064-.653c0-.142-.008-.28-.02-.423-.016-.141-.092-.21-.233-.21zm39.368-26.174c-.872 0-1.631.02-2.276.061-.647.045-1.082.064-1.307.064-.113 0-.316-.005-.612-.02l-1.053-.044c-.407-.014-.844-.025-1.306-.041-.464-.014-.936-.02-1.412-.02-.563 0-.844.097-.844.295 0 .197.113.294.338.294.168 0 .456.014.863.042.407.028.809.086 1.202.17.646.169 1.074.533 1.285 1.094.212.565.331 1.532.359 2.91l.464 21.41a51.103 51.103 0 0 1-1.56-1.664c-.702-.772-1.518-1.665-2.445-2.676s-1.917-2.093-2.97-3.246a946.534 946.534 0 0 0-3.141-3.413c-1.63-1.743-3.211-3.443-4.743-5.1-1.531-1.659-2.915-3.149-4.152-4.469s-2.254-2.423-3.056-3.31a66.234 66.234 0 0 0-1.453-1.578 16.7 16.7 0 0 1-.78-.845c-.296-.336-.526-.506-.696-.506-.168 0-.287.147-.358.445-.07.294-.104.85-.104 1.665l-.044 24.15c0 1.912-.077 3.246-.232 4.005-.154.759-.498 1.209-1.032 1.348a3.653 3.653 0 0 1-.969.211c-.337.028-.59.042-.758.042-.225 0-.338.086-.338.253 0 .225.225.336.674.336.956 0 1.819-.02 2.593-.061a39.422 39.422 0 0 1 1.453-.064c.196 0 .69.022 1.476.064s1.784.061 2.993.061c.506 0 .758-.111.758-.336 0-.167-.113-.253-.337-.253-.197 0-.499-.014-.906-.042a5.69 5.69 0 0 1-1.202-.211 1.679 1.679 0 0 1-.715-.42c-.198-.197-.359-.486-.485-.864-.127-.38-.225-.859-.296-1.434-.07-.575-.12-1.3-.148-2.17l-.547-20.191c.338.395.87.992 1.602 1.792.73.8 1.587 1.749 2.57 2.844a519.268 519.268 0 0 0 3.225 3.562 395.935 395.935 0 0 0 3.604 3.9 345.372 345.372 0 0 0 3.54 3.751c1.236 1.293 2.388 2.493 3.457 3.602a180.31 180.31 0 0 0 2.718 2.782c.745.745 1.174 1.176 1.287 1.287.56.561 1.017 1.02 1.368 1.37s.64.625.865.823c.225.194.4.328.526.4.127.07.232.105.317.105.085 0 .147-.03.189-.086.043-.055.078-.183.106-.378.027-.197.048-.492.064-.886.013-.392.02-.94.02-1.643l.085-24.7c0-1.265.083-2.171.253-2.719.168-.547.603-.892 1.306-1.03a4.635 4.635 0 0 1 1.012-.129c.308 0 .464-.097.464-.294 0-.198-.253-.295-.759-.295zm31.57-.294c-.086 0-.228.019-.422.06-.198.042-.45.092-.76.148-.337.058-.752.106-1.243.147a19.91 19.91 0 0 1-1.75.064H537.18c-.253 0-.717-.02-1.39-.064a60.126 60.126 0 0 1-1.94-.147c-.562-.056-.976-.153-1.243-.295-.268-.139-.47-.21-.611-.21-.085 0-.163.1-.232.297-.071.194-.134.364-.19.505-.028.084-.09.337-.19.759-.098.42-.204.884-.315 1.39-.113.505-.211.975-.296 1.411-.083.437-.126.712-.126.823 0 .253.07.378.21.378.169 0 .31-.139.422-.42.057-.141.133-.303.232-.486.098-.18.26-.456.485-.82.168-.253.365-.464.59-.634.224-.169.506-.302.842-.4a7.682 7.682 0 0 1 1.202-.23 13.575 13.575 0 0 1 1.665-.087l6.238-.083v17.828c0 2.024-.007 3.83-.02 5.417-.015 1.587-.079 2.832-.191 3.73-.084.62-.203 1.139-.357 1.561-.156.42-.444.673-.865.76a4.283 4.283 0 0 1-.632.124 5.184 5.184 0 0 1-.632.042c-.225 0-.338.086-.338.253 0 .225.225.336.675.336a37.3 37.3 0 0 0 1.139-.02c.448-.013.883-.027 1.306-.041.42-.014.793-.028 1.117-.042.322-.016.511-.022.568-.022.056 0 .246.006.57.022.322.014.73.028 1.221.042.492.014 1.033.028 1.623.042.591.013 1.18.02 1.77.02.45 0 .675-.112.675-.337 0-.167-.113-.253-.336-.253-.198 0-.485-.014-.865-.042a9.971 9.971 0 0 1-1.032-.125c-.648-.086-1.069-.339-1.265-.759-.197-.422-.324-.942-.38-1.561-.112-.898-.176-2.143-.19-3.73-.013-1.587-.02-3.393-.02-5.417v-17.828l5.31.083c1.012.028 1.847.106 2.509.234.66.125 1.18.286 1.559.483.38.198.653.437.822.718.17.28.267.575.295.883l.042.464c.028.312.064.506.105.592.042.084.12.125.234.125.194 0 .294-.183.294-.547 0-.111.006-.359.02-.74.014-.377.028-.805.042-1.283.016-.478.027-.956.044-1.434.011-.478.02-.87.02-1.179a3.16 3.16 0 0 0-.02-.358c-.017-.1-.078-.147-.189-.147zm33.15 19.24c-.464-.773-1.098-1.582-1.898-2.424s-1.82-1.756-3.057-2.74l-1.179-.928a35.693 35.693 0 0 1-2.51-2.107c-.658-.617-1.186-1.192-1.578-1.729-.395-.533-.67-1.058-.823-1.578a5.78 5.78 0 0 1-.23-1.665c0-1.545.497-2.748 1.495-3.604.998-.86 2.226-1.287 3.688-1.287.956 0 1.756.092 2.401.275.648.183 1.176.4 1.581.653.409.253.709.506.906.759.198.253.323.436.381.547.14.225.259.57.359 1.034a12 12 0 0 1 .189 1.073c.027.17.055.303.083.4.028.1.114.15.253.15.197 0 .295-.325.295-.97 0-1.434.027-2.51.086-3.226.055-.715.083-1.129.083-1.243 0-.197-.142-.294-.422-.294-.167 0-.356-.014-.567-.042a12.928 12.928 0 0 1-.906-.17 12.721 12.721 0 0 0-1.751-.316 20.04 20.04 0 0 0-2.17-.106c-1.349 0-2.558.184-3.625.55-1.07.364-1.981.884-2.74 1.56a6.854 6.854 0 0 0-1.748 2.4c-.409.929-.612 1.954-.612 3.077 0 .731.076 1.443.231 2.129.156.69.436 1.406.842 2.151.409.745.965 1.51 1.668 2.296.7.786 1.614 1.645 2.737 2.57l1.898 1.562c.898.759 1.657 1.44 2.277 2.043.616.606 1.117 1.195 1.495 1.77a6.32 6.32 0 0 1 .822 1.77 7.42 7.42 0 0 1 .253 2.004 5.74 5.74 0 0 1-.38 2.024 5.32 5.32 0 0 1-1.115 1.79c-.492.52-1.117.947-1.876 1.286-.759.336-1.645.506-2.657.506-.703 0-1.39-.078-2.065-.234a6.57 6.57 0 0 1-1.876-.736 4.674 4.674 0 0 1-1.453-1.328c-.395-.548-.675-1.215-.842-2.001a6.468 6.468 0 0 1-.106-.865c-.016-.267-.022-.5-.022-.695 0-.31-.097-.464-.295-.464s-.308.225-.336.673c-.03.339-.072.9-.128 1.687s-.083 1.715-.083 2.782c0 .561.028.934.083 1.117s.24.345.548.484c.87.422 1.784.717 2.74.886.956.167 1.923.253 2.91.253 1.15 0 2.273-.133 3.37-.4a8.535 8.535 0 0 0 2.994-1.37c.728-.506 1.326-1.076 1.79-1.707a9.357 9.357 0 0 0 1.098-1.917 8.673 8.673 0 0 0 .547-1.857c.097-.589.147-1.095.147-1.517 0-.842-.086-1.651-.253-2.424-.17-.772-.486-1.545-.947-2.317zm35.845 5.288c-.197 0-.336.211-.42.634-.058.395-.219.962-.486 1.706s-.625 1.357-1.075 1.835c-.842.87-1.876 1.44-3.096 1.706-1.223.267-2.635.4-4.238.4-2.249 0-4.305-.428-6.173-1.284-1.87-.859-3.471-1.995-4.805-3.415a15.49 15.49 0 0 1-3.121-4.911 15.461 15.461 0 0 1-1.117-5.817c0-2.162.247-4.166.739-6.006.492-1.84 1.509-3.504 3.054-4.994.367-.364.814-.73 1.35-1.095.534-.367 1.188-.697 1.96-.992.773-.295 1.679-.534 2.718-.717 1.04-.18 2.262-.272 3.669-.272 1.853 0 3.54.239 5.058.717 1.517.478 2.64 1.04 3.37 1.684.562.478.999 1.112 1.307 1.898s.464 1.587.464 2.401c0 .59.111.887.336.887.226 0 .353-.298.381-.887 0-.17.006-.422.02-.758.014-.337.022-.717.022-1.137 0-.423.005-.85.02-1.287.013-.436.035-.823.063-1.159.056-.759.106-1.3.148-1.623.041-.322.063-.57.063-.736 0-.142-.036-.248-.105-.317-.07-.07-.217-.12-.442-.147a26.486 26.486 0 0 1-2.045-.253c-.69-.111-1.44-.24-2.254-.381a27.058 27.058 0 0 0-3.205-.4 46.629 46.629 0 0 0-2.907-.106c-1.631 0-3.099.122-4.405.359-1.306.239-2.481.555-3.518.95a12.83 12.83 0 0 0-2.782 1.431 15.418 15.418 0 0 0-2.151 1.77c-.928.929-1.7 1.918-2.318 2.972a17.096 17.096 0 0 0-2.193 6.07c-.139.941-.21 1.764-.21 2.467 0 1.012.077 2.057.233 3.14a16.42 16.42 0 0 0 .8 3.224c.378 1.068.898 2.12 1.56 3.16s1.497 2.024 2.509 2.952c1.684 1.517 3.63 2.654 5.836 3.413 2.207.758 4.897 1.139 8.07 1.139.676 0 1.37-.022 2.088-.064s1.411-.097 2.087-.17c.675-.069 1.306-.166 1.895-.294a9.133 9.133 0 0 0 1.518-.442c.394-.17.639-.317.739-.442.097-.128.217-.386.358-.78.112-.365.225-.837.337-1.413.11-.575.21-1.145.294-1.706.086-.561.156-1.062.211-1.498.056-.433.084-.695.084-.778 0-.17-.02-.317-.061-.442-.045-.128-.123-.192-.234-.192zm33.617-20.588c-1.476-1.364-3.227-2.41-5.25-3.14-2.023-.731-4.213-1.098-6.575-1.098-1.938 0-3.694.247-5.267.74-1.576.491-2.98 1.158-4.216 2a14.47 14.47 0 0 0-3.182 2.93 18.44 18.44 0 0 0-2.212 3.499 16.983 16.983 0 0 0-1.306 3.73 16.398 16.398 0 0 0-.423 3.582c0 1.912.309 3.843.928 5.797a15.774 15.774 0 0 0 2.907 5.33c1.32 1.604 3.013 2.91 5.08 3.922 2.066 1.011 4.545 1.517 7.438 1.517 2.529 0 4.833-.459 6.914-1.37 2.079-.914 3.85-2.151 5.311-3.71 1.46-1.56 2.59-3.385 3.393-5.478.8-2.093 1.201-4.322 1.201-6.681 0-2.446-.422-4.644-1.264-6.598-.843-1.95-2.004-3.61-3.477-4.972zm-.592 20.188c-.856 1.898-1.895 3.366-3.118 4.405s-2.493 1.737-3.816 2.087c-1.32.35-2.457.528-3.413.528-1.912 0-3.682-.38-5.31-1.14a12.713 12.713 0 0 1-4.278-3.245c-1.223-1.404-2.179-3.105-2.868-5.1-.69-1.995-1.031-4.216-1.031-6.659 0-2.304.308-4.321.925-6.05.62-1.726 1.476-3.174 2.574-4.341a10.367 10.367 0 0 1 3.896-2.613c1.504-.575 3.14-.864 4.911-.864 1.66 0 3.26.336 4.805 1.012 1.545.675 2.91 1.664 4.088 2.97 1.181 1.307 2.13 2.93 2.846 4.87.717 1.94 1.076 4.171 1.076 6.7 0 3.066-.428 5.545-1.287 7.44zm31.632 2.17c-.194 0-.322.184-.378.55a5.51 5.51 0 0 1-.38 1.307 4.648 4.648 0 0 1-.715 1.223c-.506.617-1.203.984-2.087 1.095-.886.111-1.89.17-3.015.17-.815 0-1.51-.023-2.085-.064-.578-.042-1.053-.1-1.434-.17a3.32 3.32 0 0 1-.928-.295 2.56 2.56 0 0 1-.609-.442c-.394-.366-.647-1.292-.758-2.781-.114-1.49-.17-3.78-.17-6.87v-13.996c0-.645.006-1.16.02-1.537.014-.38.036-.74.064-1.076.055-.73.189-1.286.4-1.664.211-.381.625-.626 1.245-.737.253-.058.511-.092.778-.105.267-.014.47-.023.611-.023.226 0 .337-.083.337-.253 0-.225-.225-.336-.673-.336-.311 0-.711.006-1.2.02-.492.016-.979.027-1.457.041-.478.017-.897.03-1.264.045-.364.014-.576.02-.631.02a19.5 19.5 0 0 1-.57-.02c-.322-.014-.717-.028-1.181-.045-.461-.014-.962-.025-1.495-.041-.534-.014-1.04-.02-1.518-.02-.45 0-.675.111-.675.336 0 .17.114.253.34.253.194 0 .441.009.736.023.294.013.528.047.694.105.704.14 1.168.392 1.393.759.225.364.364.911.422 1.642.025.337.047.695.061 1.076.014.378.023.892.023 1.537v13.91c0 2.023-.009 3.829-.023 5.416-.014 1.587-.077 2.832-.189 3.73-.083.62-.203 1.139-.358 1.561-.156.42-.442.673-.864.76a4.227 4.227 0 0 1-.631.124 5.189 5.189 0 0 1-.634.042c-.225 0-.336.086-.336.253 0 .225.225.336.675.336a37.923 37.923 0 0 0 2.401-.083c.423 0 .795-.006 1.117-.02.323-.016.529-.022.612-.022.617 0 1.264.006 1.94.022.672.014 1.459.047 2.36.103.897.028 1.909.058 3.034.086 1.123.028 2.443.042 3.96.042.565 0 1.006-.014 1.329-.042.322-.028.57-.086.74-.17a.77.77 0 0 0 .358-.336c.069-.141.147-.336.23-.589.084-.311.161-.683.23-1.117.07-.436.143-.864.212-1.287.07-.422.12-.8.147-1.136.028-.34.042-.565.042-.676 0-.422-.083-.633-.253-.633zm32.33 5.27c-.225 0-.486-.014-.78-.042a3.585 3.585 0 0 1-.907-.211 3.25 3.25 0 0 1-.736-.295c-.267-.139-.548-.378-.845-.717-.295-.336-.617-.8-.967-1.39-.353-.591-.712-1.35-1.076-2.275l-1.581-4.005a744.99 744.99 0 0 1-1.982-5.08c-.689-1.785-1.384-3.588-2.084-5.417a661.652 661.652 0 0 1-1.918-5.036c-.578-1.531-1.07-2.829-1.475-3.899a62.402 62.402 0 0 0-.781-1.981c-.253-.645-.437-1.06-.548-1.243-.114-.183-.239-.275-.38-.275-.14 0-.267.1-.379.298-.114.194-.294.644-.547 1.347l-9.569 26.174c-.394 1.07-.836 1.96-1.328 2.677-.492.717-1.229 1.145-2.212 1.287-.17.027-.378.05-.631.063-.253.014-.45.02-.592.02-.253 0-.378.086-.378.253 0 .225.267.336.8.336.506 0 1.012-.006 1.518-.02.505-.013.983-.027 1.434-.041.447-.014.833-.028 1.159-.042.322-.016.539-.022.653-.022.11 0 .3.006.567.022a123.185 123.185 0 0 0 1.834.084c.339.013.634.02.886.02.42 0 .631-.112.631-.337 0-.167-.141-.253-.42-.253h-.422c-.367 0-.725-.097-1.075-.295-.35-.197-.526-.506-.526-.928 0-.786.195-1.726.59-2.824l2.529-7.459c.083-.225.225-.339.422-.339h9.06c.17 0 .295.086.38.253l3.92 10.37c.141.338.169.597.086.78-.087.183-.198.303-.34.359-.197.055-.294.155-.294.294 0 .142.111.217.336.23.225.017.534.037.928.065a101.075 101.075 0 0 0 4.13.083h2.488a2.5 2.5 0 0 0 .592-.061c.166-.042.252-.133.252-.275 0-.167-.141-.253-.422-.253zm-12.603-13.362h-8.052c-.166 0-.208-.098-.125-.295l3.708-11.38c.197-.617.408-.617.633 0l4.005 11.38c.056.197 0 .295-.17.295zm26.343 13.362c-.197 0-.483-.014-.864-.042a9.99 9.99 0 0 1-1.031-.125c-.648-.086-1.07-.339-1.265-.759-.197-.422-.325-.942-.38-1.561-.112-.898-.176-2.143-.19-3.73a620.24 620.24 0 0 1-.022-5.417v-13.91c0-.644.009-1.158.023-1.536.013-.38.033-.74.063-1.076.056-.73.19-1.286.4-1.664.212-.381.595-.626 1.16-.737.252-.058.455-.092.611-.105.153-.014.3-.023.442-.023.225 0 .336-.083.336-.253 0-.225-.225-.336-.672-.336-.312 0-.69.006-1.14.02-.45.016-.884.027-1.306.041-.423.017-.795.03-1.117.045s-.514.02-.57.02c-.056 0-.245-.006-.567-.02l-1.117-.045c-.423-.014-.873-.025-1.35-.041a42.32 42.32 0 0 0-1.22-.02c-.451 0-.676.111-.676.336 0 .17.11.253.336.253.142 0 .34.014.592.042.253.028.49.072.714.128.873.197 1.351.984 1.434 2.36.028.336.05.694.064 1.075.014.378.02.892.02 1.537v13.91c0 2.023-.006 3.829-.02 5.416s-.078 2.832-.189 3.73c-.086.62-.205 1.139-.358 1.561-.156.42-.445.673-.865.76a4.266 4.266 0 0 1-.633.124 5.18 5.18 0 0 1-.631.042c-.225 0-.34.086-.34.253 0 .225.226.336.676.336.309 0 .69-.006 1.14-.02.447-.013.883-.027 1.306-.041.42-.014.792-.028 1.117-.042.322-.016.511-.022.567-.022.056 0 .247.006.57.022.322.014.73.028 1.223.042.491.014 1.033.028 1.623.042.589.013 1.178.02 1.77.02.447 0 .672-.112.672-.337 0-.167-.11-.253-.336-.253zm39.072 0a11.35 11.35 0 0 1-1.643-.125c-.533-.086-1.236-.309-2.109-.676-.87-.364-1.881-1.15-3.034-2.359-1.237-1.32-2.571-2.896-4.002-4.722l-4.764-6.07c1.882-1.742 3.202-3.407 3.96-4.994.76-1.586 1.14-3.168 1.14-4.74 0-.732-.106-1.407-.317-2.024a8.11 8.11 0 0 0-.759-1.645 7.36 7.36 0 0 0-.947-1.243 8.41 8.41 0 0 0-.887-.822 8.465 8.465 0 0 0-3.688-1.54 26.04 26.04 0 0 0-4.024-.314c-.336 0-.759.006-1.265.02-.505.016-1.02.027-1.54.041-.519.017-.983.03-1.389.045-.408.014-.667.02-.78.02-.056 0-.245-.006-.568-.02-.325-.014-.717-.028-1.18-.045-.465-.014-.965-.025-1.496-.041a58.48 58.48 0 0 0-1.517-.02c-.45 0-.676.111-.676.336 0 .17.111.253.337.253.197 0 .441.009.739.023.294.013.525.047.695.105.7.14 1.164.392 1.39.759.224.364.366.911.422 1.642.027.337.05.695.064 1.076.013.378.019.892.019 1.537v13.91c0 2.023-.006 3.829-.02 5.416-.013 1.587-.077 2.832-.189 3.73-.086.62-.205 1.139-.358 1.561-.156.42-.445.673-.864.76a4.266 4.266 0 0 1-.634.124 5.18 5.18 0 0 1-.63.042c-.226 0-.34.086-.34.253 0 .225.225.336.675.336.309 0 .69-.006 1.14-.02a114.7 114.7 0 0 0 2.824-.106 86.69 86.69 0 0 0 1.79.064c.491.015 1.033.029 1.622.043.59.013 1.181.02 1.77.02.45 0 .676-.112.676-.337 0-.167-.114-.253-.34-.253-.194 0-.483-.014-.86-.042a9.956 9.956 0 0 1-1.034-.125c-.648-.086-1.068-.339-1.265-.759-.197-.422-.322-.942-.378-1.561-.114-.898-.178-2.143-.192-3.73s-.02-3.393-.02-5.417v-1.011c0-.225.098-.337.295-.337l5.184.084c.197 0 .38.086.547.253.197.28.473.653.823 1.117.353.464.73.978 1.14 1.54.405.561.833 1.15 1.283 1.77.45.617.9 1.223 1.35 1.812 1.207 1.6 2.232 2.915 3.077 3.94.842 1.026 1.712 1.78 2.613 2.255a5.238 5.238 0 0 0 1.77.633c.648.111 1.56.167 2.74.167h2.993c.392 0 .659-.02.8-.061.14-.042.212-.133.212-.275 0-.167-.128-.253-.38-.253zm-16.563-15.005a3.817 3.817 0 0 1-1.56.653c-.564.1-1.097.148-1.603.148-.926 0-1.818-.064-2.677-.19-.855-.127-1.44-.288-1.748-.486a.544.544 0 0 1-.294-.505v-13.782c0-.253.111-.423.336-.506.225-.056.59-.111 1.095-.17a15.97 15.97 0 0 1 1.729-.083c2.276 0 4.06.745 5.352 2.234s1.94 3.555 1.94 6.195c0 1.604-.247 2.96-.736 4.069-.492 1.109-1.104 1.917-1.834 2.423zm35.278 9.905c-.17 0-.295.211-.378.634-.142.87-.353 1.537-.634 2-.28.465-.703.81-1.264 1.035-.561.225-1.237.355-2.023.4a38.9 38.9 0 0 1-2.024.061c-1.039 0-1.867-.042-2.487-.125-.617-.083-1.103-.253-1.453-.506a1.89 1.89 0 0 1-.717-1.053c-.125-.45-.203-1.04-.231-1.77v-10.917c0-.197.097-.297.295-.297.17 0 .528.008 1.075.022.548.014 1.137.028 1.77.042.631.013 1.251.036 1.854.063.603.028 1.048.056 1.329.084.814.086 1.361.275 1.642.57s.464.597.547.906c.087.28.134.528.15.739.014.208.02.428.02.653 0 .253.097.378.295.378.141 0 .225-.092.253-.273a3.52 3.52 0 0 0 .041-.528c0-.083.009-.23.022-.441.014-.212.028-.45.042-.717l.042-.8c.014-.268.036-.515.064-.74.055-.7.128-1.237.211-1.6.083-.365.125-.618.125-.76 0-.225-.07-.336-.208-.336-.114 0-.326.184-.634.548-.197.225-.45.364-.759.42-.308.058-.717.113-1.223.169-.253.028-.717.05-1.39.064-.675.014-1.392.02-2.15.02h-3.16c-.17 0-.253-.14-.253-.42v-11.634c0-.28.083-.422.253-.422h.97c.561 0 1.164.008 1.812.022l1.853.041c.59.014.97.037 1.14.064 1.123.14 1.868.331 2.232.567.366.24.62.528.758.865.114.253.184.536.212.845.027.308.041.533.041.672 0 .367.114.55.34.55.083 0 .147-.05.188-.15a2.08 2.08 0 0 0 .106-.314c.028-.114.047-.303.064-.57.014-.266.033-.547.06-.842.029-.297.05-.57.065-.822.014-.253.022-.437.022-.548.056-.592.125-1.034.211-1.328.084-.295.125-.511.125-.653 0-.253-.055-.381-.17-.381a.531.531 0 0 0-.294.086.943.943 0 0 1-.294.125c-.395.086-.998.156-1.812.211-.253 0-.879.009-1.876.023-.998.014-2.074.02-3.224.02h-4.552l-1.729-.084a26.2 26.2 0 0 0-1.517-.042h-1.518c-.45 0-.675.111-.675.336 0 .17.114.253.339.253.194 0 .442.009.736.023.295.013.528.047.695.105.703.14 1.167.392 1.393.759.225.364.364.911.422 1.642.025.337.047.695.061 1.076.014.378.022.892.022 1.537v13.91c0 2.023-.008 3.829-.022 5.416-.014 1.587-.078 2.832-.189 3.73-.083.62-.203 1.139-.358 1.561-.156.42-.442.673-.865.76a4.226 4.226 0 0 1-.63.124 5.188 5.188 0 0 1-.634.042c-.225 0-.337.086-.337.253 0 .225.226.336.676.336.308 0 .686-.014 1.136-.042.45-.027.887-.041 1.307-.041.45-.028.828-.042 1.14-.042h.547a49.684 49.684 0 0 1 3.288.125c.814.028 1.803.058 2.97.086 1.168.028 2.552.042 4.152.042.423 0 .759-.008 1.012-.022.253-.014.464-.056.63-.125a.76.76 0 0 0 .382-.317c.083-.14.17-.35.252-.631.056-.225.112-.548.17-.97a314.463 314.463 0 0 0 .314-2.465c.045-.353.064-.57.064-.653 0-.142-.008-.28-.02-.423-.016-.141-.091-.21-.233-.21zm28.895-26.174c-.309 0-.69.006-1.137.02-.45.016-.886.027-1.306.041-.422.017-.795.03-1.117.045-.325.014-.514.02-.57.02-.058 0-.247-.006-.57-.02s-.717-.028-1.18-.045c-.462-.014-.962-.025-1.496-.041-.534-.014-1.04-.02-1.517-.02-.45 0-.676.111-.676.336 0 .17.114.253.34.253.194 0 .441.009.736.023.294.013.528.047.695.105.703.14 1.167.392 1.392.759.225.364.364.911.422 1.642.025.337.048.695.062 1.076.013.378.022.892.022 1.537v18.673c0 2.726-.084 4.952-.253 6.68-.17 1.73-.423 3.16-.759 4.3-.336 1.137-.759 2.065-1.264 2.782s-1.095 1.426-1.77 2.129c-.198.195-.429.406-.695.63-.27.226-.529.41-.781.548l-.442.317c-.1.07-.148.175-.148.317 0 .17.098.253.295.253a.682.682 0 0 0 .295-.083c.225-.114.483-.27.78-.465a58.6 58.6 0 0 0 .865-.592c1.712-1.178 3.054-2.281 4.024-3.307.97-1.025 1.679-2.073 2.129-3.14.308-.759.547-1.512.717-2.254.167-.745.294-1.59.378-2.53.086-.941.133-2.022.147-3.245.014-1.223.022-2.69.022-4.405v-16.608c0-.645.006-1.16.02-1.537.014-.38.036-.74.064-1.076.055-.73.189-1.286.4-1.664.211-.381.597-.626 1.159-.737.253-.058.458-.092.611-.105a5 5 0 0 1 .442-.023c.225 0 .34-.083.34-.253 0-.225-.226-.336-.676-.336zm15.891-3.457a29.274 29.274 0 0 1 2.949-1.012c.589-.17 1.186-.322 1.792-.464a14.602 14.602 0 0 1 1.665-.294c.364-.056.653-.07.864-.042.212.028.342.042.4.042a.313.313 0 0 0 .231-.106c.07-.07.05-.203-.064-.4-.225-.423-.42-.778-.589-1.076-.17-.294-.322-.553-.464-.778-.167-.253-.308-.38-.42-.38a.998.998 0 0 0-.4.105c-.156.072-.417.22-.78.442-.084.058-.36.22-.823.486-.465.267-.998.59-1.601.97-.606.378-1.218.764-1.834 1.159-.617.392-1.11.717-1.476.97-.198.111-.295.225-.295.336 0 .17.07.253.211.253.084 0 .295-.07.634-.211zm10.41 29.631c-.169 0-.297.211-.38.634-.142.87-.35 1.537-.63 2-.284.465-.704.81-1.265 1.035-.565.225-1.237.355-2.024.4-.789.042-1.461.061-2.023.061-1.042 0-1.87-.042-2.487-.125-.62-.083-1.103-.253-1.454-.506a1.863 1.863 0 0 1-.717-1.053c-.128-.45-.205-1.04-.233-1.77v-10.917c0-.197.1-.297.297-.297.167 0 .526.008 1.073.022.547.014 1.14.028 1.77.042.634.013 1.25.036 1.857.063a28.13 28.13 0 0 1 1.325.084c.815.086 1.365.275 1.646.57s.464.597.547.906c.084.28.134.528.147.739.014.208.023.428.023.653 0 .253.097.378.294.378.14 0 .225-.092.253-.273a3.52 3.52 0 0 0 .042-.528c0-.083.005-.23.022-.441.014-.212.025-.45.042-.717l.042-.8c.013-.268.033-.515.063-.74.056-.7.125-1.237.209-1.6.086-.365.128-.618.128-.76 0-.225-.07-.336-.212-.336-.11 0-.322.184-.63.548-.198.225-.45.364-.76.42-.31.058-.716.113-1.222.169-.253.028-.717.05-1.392.064-.673.014-1.39.02-2.149.02h-3.162c-.167 0-.253-.14-.253-.42v-11.634c0-.28.086-.422.253-.422h.97c.561 0 1.167.008 1.812.022l1.856.041c.59.014.967.037 1.137.064 1.123.14 1.867.331 2.234.567.364.24.617.528.759.865.111.253.183.536.211.845.028.308.042.533.042.672 0 .367.111.55.336.55.086 0 .148-.05.192-.15.042-.097.075-.203.103-.314.028-.114.05-.303.064-.57s.036-.547.064-.842c.027-.297.047-.57.064-.822.013-.253.019-.437.019-.548.056-.592.128-1.034.211-1.328.084-.295.128-.511.128-.653 0-.253-.058-.381-.17-.381a.518.518 0 0 0-.294.086.972.972 0 0 1-.295.125c-.394.086-.997.156-1.814.211-.253 0-.879.009-1.874.023-.997.014-2.073.02-3.226.02h-4.552l-1.726-.084c-.481-.028-.987-.042-1.518-.042h-1.517c-.45 0-.675.111-.675.336 0 .17.11.253.336.253.197 0 .442.009.74.023.294.013.524.047.694.105.7.14 1.164.392 1.39.759.225.364.366.911.422 1.642.028.337.05.695.064 1.076.014.378.02.892.02 1.537v13.91c0 2.023-.006 3.829-.02 5.416-.014 1.587-.078 2.832-.19 3.73-.085.62-.205 1.139-.358 1.561-.155.42-.444.673-.864.76a4.265 4.265 0 0 1-.634.124 5.18 5.18 0 0 1-.63.042c-.226 0-.34.086-.34.253 0 .225.226.336.676.336.308 0 .689-.014 1.14-.042.447-.027.883-.041 1.305-.041.448-.028.829-.042 1.137-.042h.548a49.44 49.44 0 0 1 3.288.125c.814.028 1.806.058 2.973.086 1.164.028 2.549.042 4.15.042.422 0 .758-.008 1.01-.022.254-.014.465-.056.635-.125a.752.752 0 0 0 .377-.317c.087-.14.17-.35.253-.631.059-.225.114-.548.17-.97.055-.422.111-.85.17-1.287.055-.433.105-.828.147-1.178.041-.353.064-.57.064-.653 0-.142-.009-.28-.023-.423-.013-.141-.091-.21-.23-.21zm22.656-7.228c-.464-.773-1.097-1.582-1.898-2.424-.8-.842-1.82-1.756-3.057-2.74l-1.178-.928a35.705 35.705 0 0 1-2.51-2.107c-.658-.617-1.186-1.192-1.578-1.729-.395-.533-.67-1.058-.823-1.578a5.78 5.78 0 0 1-.23-1.665c0-1.545.497-2.748 1.495-3.604.997-.86 2.226-1.287 3.687-1.287.957 0 1.757.092 2.402.275.647.183 1.175.4 1.581.653.409.253.709.506.906.759.197.253.322.436.38.547.14.225.26.57.36 1.034.097.461.16.82.188 1.073.028.17.056.303.084.4.027.1.114.15.253.15.197 0 .294-.325.294-.97 0-1.434.028-2.51.086-3.226.056-.715.084-1.129.084-1.243 0-.197-.142-.294-.423-.294-.167 0-.355-.014-.567-.042s-.514-.086-.906-.17a12.721 12.721 0 0 0-1.75-.316 20.04 20.04 0 0 0-2.171-.106c-1.348 0-2.557.184-3.624.55-1.07.364-1.982.884-2.74 1.56a6.854 6.854 0 0 0-1.748 2.4c-.409.929-.612 1.954-.612 3.077 0 .731.075 1.443.23 2.129.156.69.437 1.406.843 2.151.408.745.964 1.51 1.667 2.296.7.786 1.615 1.645 2.738 2.57l1.898 1.562c.898.759 1.656 1.44 2.276 2.043.617.606 1.117 1.195 1.495 1.77.381.578.653 1.168.823 1.77.17.606.253 1.273.253 2.004 0 .673-.128 1.348-.38 2.024a5.32 5.32 0 0 1-1.115 1.79c-.492.52-1.118.947-1.876 1.286-.759.336-1.645.506-2.657.506-.703 0-1.39-.078-2.065-.234-.675-.152-1.3-.4-1.876-.736a4.674 4.674 0 0 1-1.453-1.328c-.395-.548-.676-1.215-.843-2.001a6.458 6.458 0 0 1-.105-.865c-.017-.267-.022-.5-.022-.695 0-.31-.098-.464-.295-.464s-.308.225-.336.673c-.03.339-.072.9-.128 1.687s-.083 1.715-.083 2.782c0 .561.027.934.083 1.117s.239.345.547.484c.87.422 1.785.717 2.74.886a16.88 16.88 0 0 0 2.91.253c1.151 0 2.274-.133 3.372-.4a8.536 8.536 0 0 0 2.993-1.37c.728-.506 1.325-1.076 1.79-1.707a9.357 9.357 0 0 0 1.097-1.917 8.673 8.673 0 0 0 .548-1.857c.097-.589.147-1.095.147-1.517 0-.842-.086-1.651-.253-2.424-.17-.772-.486-1.545-.948-2.317zm37.152-18.946c-.308 0-.653.006-1.031.02-.38.016-.745.027-1.098.041-.35.017-.653.03-.906.045-.253.014-.42.02-.506.02-.055 0-.23-.006-.525-.02-.294-.014-.653-.028-1.075-.045-.423-.014-.884-.025-1.39-.041-.506-.014-.998-.02-1.476-.02-.45 0-.675.111-.675.336 0 .17.111.253.336.253.198 0 .445.009.74.023.294.013.525.047.694.105.703.14 1.168.392 1.393.759.222.364.364.911.42 1.642.027.337.05.695.063 1.076.014.378.023.892.023 1.537v11.761c0 2.19-.164 4.158-.487 5.9-.322 1.743-.975 3.218-1.96 4.427-.758.898-1.728 1.629-2.909 2.19a8.484 8.484 0 0 1-3.707.845c-1.21 0-2.313-.142-3.31-.422-.998-.28-2.015-.915-3.055-1.898-.45-.42-.872-.92-1.264-1.496-.395-.575-.731-1.27-1.012-2.087-.283-.814-.5-1.776-.653-2.887-.155-1.11-.233-2.424-.233-3.941v-12.392c0-.645.008-1.16.022-1.537.014-.38.033-.74.064-1.076.056-.73.189-1.292.4-1.687.209-.392.595-.63 1.159-.714.253-.058.456-.092.611-.105.153-.014.3-.023.442-.023.225 0 .337-.083.337-.253 0-.225-.226-.336-.673-.336-.311 0-.684.006-1.117.02-.436.016-.864.027-1.287.041-.422.017-.8.03-1.137.045-.339.014-.55.02-.633.02s-.303-.006-.653-.02c-.353-.014-.76-.028-1.223-.045-.464-.014-.956-.025-1.476-.041-.52-.014-1.017-.02-1.495-.02-.45 0-.675.111-.675.336 0 .17.114.253.339.253.194 0 .442.009.736.023.295.013.528.047.695.105.703.14 1.167.392 1.392.759.225.364.364.911.42 1.642.028.337.05.695.064 1.076.014.378.022.892.022 1.537v12.645c0 1.545.089 2.896.272 4.046.184 1.154.445 2.17.781 3.057.337.884.731 1.643 1.182 2.276.447.631.925 1.201 1.43 1.707a9.65 9.65 0 0 0 2.424 1.665c.859.408 1.693.708 2.51.906.814.197 1.55.316 2.212.358.659.042 1.173.064 1.537.064.62 0 1.278-.036 1.981-.106.703-.07 1.42-.22 2.151-.441.731-.226 1.482-.542 2.254-.951.773-.406 1.54-.948 2.299-1.62a9.2 9.2 0 0 0 2.023-2.593c.506-.97.898-2.01 1.178-3.121.281-1.109.464-2.246.55-3.413.084-1.164.126-2.326.126-3.477v-11.002c0-.645.005-1.16.022-1.537.014-.38.033-.74.06-1.076.06-.73.193-1.278.401-1.642.211-.367.598-.62 1.162-.759.253-.058.456-.092.608-.105a5.01 5.01 0 0 1 .445-.023c.225 0 .336-.083.336-.253 0-.225-.225-.336-.675-.336zm17.45 31.274c-.197 0-.483-.014-.864-.042a9.99 9.99 0 0 1-1.031-.125c-.648-.086-1.07-.339-1.265-.759-.197-.422-.325-.942-.38-1.561-.111-.898-.175-2.143-.19-3.73a620.435 620.435 0 0 1-.021-5.417v-13.91c0-.644.008-1.158.022-1.536.014-.38.033-.74.064-1.076.055-.73.189-1.286.4-1.664.211-.381.595-.626 1.159-.737.253-.058.456-.092.611-.105.153-.014.3-.023.442-.023.225 0 .336-.083.336-.253 0-.225-.225-.336-.672-.336-.311 0-.69.006-1.14.02-.45.016-.883.027-1.306.041-.422.017-.795.03-1.117.045s-.514.02-.57.02c-.055 0-.244-.006-.567-.02l-1.117-.045c-.422-.014-.873-.025-1.35-.041a42.32 42.32 0 0 0-1.22-.02c-.45 0-.676.111-.676.336 0 .17.111.253.336.253.142 0 .34.014.592.042.253.028.49.072.714.128.873.197 1.351.984 1.435 2.36.027.336.05.694.063 1.075.014.378.02.892.02 1.537v13.91c0 2.023-.006 3.829-.02 5.416s-.077 2.832-.189 3.73c-.086.62-.205 1.139-.358 1.561-.156.42-.445.673-.864.76a4.266 4.266 0 0 1-.634.124 5.18 5.18 0 0 1-.63.042c-.226 0-.34.086-.34.253 0 .225.225.336.675.336.309 0 .69-.006 1.14-.02.447-.013.884-.027 1.306-.041.42-.014.792-.028 1.117-.042.323-.016.512-.022.567-.022.056 0 .248.006.57.022.322.014.73.028 1.223.042.492.014 1.034.028 1.623.042.589.013 1.178.02 1.77.02.448 0 .673-.112.673-.337 0-.167-.112-.253-.337-.253zm31.319-31.568c-.086 0-.225.019-.423.06s-.45.092-.759.148c-.336.058-.753.106-1.242.147-.494.045-1.075.064-1.75.064h-15.806c-.253 0-.717-.02-1.392-.064a60.325 60.325 0 0 1-1.937-.147c-.564-.056-.978-.153-1.245-.295-.267-.139-.47-.21-.612-.21-.083 0-.16.1-.23.297-.073.194-.134.364-.19.505-.03.084-.09.337-.191.759-.097.42-.203.884-.314 1.39-.114.505-.211.975-.297 1.411-.084.437-.125.712-.125.823 0 .253.069.378.21.378.167 0 .31-.139.42-.42.059-.141.134-.303.234-.486.097-.18.258-.456.483-.82.17-.253.367-.464.592-.634.223-.169.506-.302.842-.4a7.63 7.63 0 0 1 1.201-.23 13.59 13.59 0 0 1 1.665-.087l6.239-.083v17.828c0 2.024-.008 3.83-.022 5.417-.014 1.587-.078 2.832-.19 3.73-.083.62-.202 1.139-.358 1.561-.155.42-.442.673-.864.76a4.298 4.298 0 0 1-.631.124 5.188 5.188 0 0 1-.634.042c-.225 0-.336.086-.336.253 0 .225.225.336.675.336.309 0 .687-.006 1.137-.02.45-.013.884-.027 1.306-.041.423-.014.795-.028 1.118-.042.322-.016.51-.022.57-.022.055 0 .244.006.569.022.322.014.728.028 1.22.042.492.014 1.034.028 1.623.042.592.013 1.181.02 1.77.02.45 0 .676-.112.676-.337 0-.167-.114-.253-.337-.253-.197 0-.486-.014-.864-.042a9.958 9.958 0 0 1-1.034-.125c-.647-.086-1.067-.339-1.264-.759-.198-.422-.323-.942-.378-1.561-.114-.898-.178-2.143-.192-3.73-.014-1.587-.02-3.393-.02-5.417v-17.828l5.312.083c1.011.028 1.845.106 2.506.234.662.125 1.181.286 1.56.483.38.198.653.437.822.718.17.28.267.575.295.883l.041.464c.028.312.064.506.106.592.042.084.12.125.233.125.195 0 .295-.183.295-.547 0-.111.006-.359.02-.74l.044-1.283.042-1.434c.014-.478.02-.87.02-1.179 0-.141-.006-.26-.02-.358-.014-.1-.078-.147-.19-.147zm24.045 26.68c-.014-.142-.092-.212-.23-.212-.17 0-.298.211-.382.634-.141.87-.35 1.537-.63 2-.284.465-.704.81-1.265 1.035-.564.225-1.237.355-2.023.4-.79.042-1.462.061-2.023.061-1.043 0-1.87-.042-2.488-.125-.62-.083-1.103-.253-1.453-.506a1.863 1.863 0 0 1-.717-1.053c-.128-.45-.206-1.04-.234-1.77v-10.917c0-.197.1-.297.298-.297.166 0 .525.008 1.072.022l1.77.042c.634.013 1.251.036 1.857.063a28.12 28.12 0 0 1 1.326.084c.814.086 1.364.275 1.645.57s.464.597.548.906c.083.28.133.528.147.739.014.208.022.428.022.653 0 .253.097.378.295.378.139 0 .225-.092.253-.273a3.52 3.52 0 0 0 .041-.528c0-.083.006-.23.023-.441l.041-.717.042-.8c.014-.268.033-.515.064-.74.055-.7.125-1.237.208-1.6.086-.365.128-.618.128-.76 0-.225-.07-.336-.211-.336-.111 0-.322.184-.63.548-.198.225-.451.364-.76.42-.31.058-.717.113-1.222.169-.253.028-.718.05-1.393.064-.672.014-1.39.02-2.148.02h-3.163c-.167 0-.253-.14-.253-.42v-11.634c0-.28.086-.422.253-.422h.97c.562 0 1.167.008 1.812.022l1.857.041c.589.014.967.037 1.136.064 1.123.14 1.868.331 2.235.567.364.24.617.528.758.865.112.253.184.536.212.845s.041.533.041.672c0 .367.111.55.337.55.086 0 .147-.05.191-.15.042-.097.075-.203.103-.314.028-.114.05-.303.064-.57.014-.266.036-.547.064-.842.028-.297.047-.57.064-.822.014-.253.02-.437.02-.548.055-.592.127-1.034.21-1.328.084-.295.128-.511.128-.653 0-.253-.058-.381-.17-.381a.518.518 0 0 0-.294.086.972.972 0 0 1-.294.125c-.395.086-.998.156-1.815.211-.253 0-.878.009-1.873.023-.998.014-2.073.02-3.227.02h-4.552l-1.726-.084c-.48-.028-.986-.042-1.517-.042h-1.518c-.45 0-.675.111-.675.336 0 .17.111.253.336.253.198 0 .442.009.74.023.294.013.525.047.694.105.7.14 1.165.392 1.39.759.225.364.367.911.422 1.642.028.337.05.695.064 1.076.014.378.02.892.02 1.537v13.91c0 2.023-.006 3.829-.02 5.416s-.078 2.832-.189 3.73c-.086.62-.205 1.139-.358 1.561-.156.42-.445.673-.865.76a4.266 4.266 0 0 1-.633.124 5.18 5.18 0 0 1-.631.042c-.225 0-.34.086-.34.253 0 .225.226.336.676.336.309 0 .69-.014 1.14-.042.447-.027.883-.041 1.306-.041.447-.028.828-.042 1.136-.042h.548a49.442 49.442 0 0 1 3.288.125c.814.028 1.806.058 2.973.086 1.165.028 2.549.042 4.15.042.422 0 .758-.008 1.011-.022.253-.014.464-.056.634-.125a.752.752 0 0 0 .378-.317c.086-.14.17-.35.253-.631a8.61 8.61 0 0 0 .17-.97c.055-.422.11-.85.169-1.287.055-.433.105-.828.147-1.178.042-.353.064-.57.064-.653 0-.142-.008-.28-.022-.423zM184.744 57.54c-3.145-.714-5.988-1.992-8.158-4.244.236-.848.416-1.704.565-2.575l21.137-4.27-21.09-4.047a25.454 25.454 0 0 0-.202-1.086c3.51-1.326 6-3.375 7.745-5.956 2.466-3.648 5.69-5.59 10.015-6.684-4.546-1.162-8.288.119-11.814 2.34-2.731 1.721-5.628 2.837-8.76 2.778a25.445 25.445 0 0 0-1.42-2.23l11.924-17.953-17.776 12.043a26.054 26.054 0 0 0-.896-.622c1.543-3.417 1.846-6.627 1.254-9.685-.836-4.323.07-7.993 2.353-11.825-4.036 2.392-5.76 5.955-6.682 10.02-.716 3.152-1.992 6.007-4.253 8.179a25.75 25.75 0 0 0-2.566-.586L151.85 0l-4.047 21.09c-.363.058-.724.128-1.087.202-1.326-3.508-3.374-6-5.956-7.745-3.648-2.465-5.588-5.69-6.683-10.015-1.163 4.546.119 8.288 2.34 11.814 1.718 2.726 2.847 5.632 2.793 8.754-.782.44-1.527.915-2.246 1.427l-17.953-11.925 12.053 17.755c-.217.299-.428.61-.63.917-3.42-1.54-6.628-1.845-9.686-1.254-4.323.837-7.993-.069-11.825-2.353 2.392 4.036 5.961 5.775 10.025 6.698 3.15.714 5.996 1.969 8.168 4.223-.237.849-.432 1.708-.58 2.58l-21.132 4.285 21.084 4.032c.058.363.128.725.202 1.087-3.507 1.327-6 3.375-7.745 5.956-2.466 3.648-5.684 5.604-10.009 6.699 4.546 1.162 8.282-.134 11.808-2.356 2.726-1.717 5.632-2.846 8.754-2.793.44.782.915 1.527 1.426 2.246l-11.918 17.968 17.764-12.074c.296.215.597.436.902.637-1.54 3.419-1.84 6.643-1.248 9.7.837 4.323-.075 7.978-2.36 11.81 4.037-2.392 5.776-5.96 6.699-10.025.714-3.149 1.968-5.995 4.223-8.167a25.57 25.57 0 0 0 2.58.58l4.285 21.131 4.032-21.084a25.18 25.18 0 0 0 1.087-.201c1.326 3.508 3.375 6 5.956 7.745 3.648 2.465 5.604 5.683 6.698 10.008 1.163-4.546-.133-8.281-2.355-11.807-1.721-2.732-2.837-5.63-2.778-8.76a25.459 25.459 0 0 0 2.231-1.421l17.968 11.918-12.059-17.77c.212-.293.423-.594.622-.895 3.42 1.544 6.641 1.839 9.7 1.247 4.323-.836 7.978.075 11.81 2.36-2.392-4.037-5.955-5.76-10.019-6.683z" fill="#f9b93e"/></svg>